<svg width="895" height="1259" viewBox="0 0 895 1259" fill="none" xmlns="http://www.w3.org/2000/svg">
<path opacity="0.48663" d="M355.662 1010.83C275.37 1002.19 213.46 956.089 143.696 945.803C74.0485 935.349 -3.18988 960.647 -64.7883 943.058C-126.123 925.403 -171.964 864.758 -175.138 796.426C-178.34 727.823 -139.023 651.432 -119.947 557.862C-100.753 464.124 -101.946 353.106 -52.0886 317.4C-2.49467 281.759 97.8868 321.497 190.202 315.77C282.663 310.146 366.794 259.123 449.956 256.503C533.236 253.715 615.284 299.396 662.675 373.397C710.212 447.5 722.975 550.092 712.054 652.878C701.015 755.832 666.41 858.812 600.123 924.833C533.806 990.583 435.689 1019.54 355.662 1010.83Z" fill="#D5EEEC"/>
<mask id="mask0" mask-type="alpha" maskUnits="userSpaceOnUse" x="-358" y="0" width="1253" height="1259">
<path d="M355.662 1010.83C275.37 1002.19 213.46 956.089 143.696 945.803C74.0485 935.349 -3.18988 960.647 -64.7883 943.058C-126.123 925.403 -171.964 864.758 -175.138 796.426C-178.34 727.823 -139.023 651.432 -119.947 557.862C-100.753 464.124 -101.946 353.106 -52.0886 317.4C-2.49467 281.759 97.8868 321.497 190.202 315.77C282.663 310.146 366.794 259.123 449.956 256.503C533.236 253.715 615.284 299.396 662.675 373.397C710.212 447.5 722.975 550.092 712.054 652.878C701.015 755.832 666.41 858.812 600.123 924.833C533.806 990.583 435.689 1019.54 355.662 1010.83Z" fill="white"/>
</mask>
<g mask="url(#mask0)">
<path opacity="0.302479" d="M-420.908 666.451C-420.908 666.451 -324.251 553.776 -220.048 539.239C-115.844 524.703 -86.8425 606.622 12.7297 592.731C112.302 578.841 96.0361 495.145 195.608 481.254C295.18 467.363 324.182 549.283 408.703 537.492C493.223 525.701 453.462 433.002 595.874 413.135C738.285 393.268 710.893 495.335 816.254 480.637" stroke="#003B4A"/>
<path opacity="0.302479" d="M-447.831 594.358C-447.831 594.358 -351.174 481.683 -246.971 467.146C-142.767 452.61 -113.765 534.529 -14.1932 520.638C85.379 506.748 69.1132 423.052 168.685 409.161C268.258 395.27 297.259 477.19 381.78 465.399C466.3 453.608 426.54 360.909 568.951 341.042C711.362 321.175 683.97 423.242 789.331 408.544" stroke="#003B4A"/>
<path opacity="0.302479" d="M-474.754 510.796C-474.754 510.796 -378.096 398.121 -273.893 383.584C-169.689 369.048 -140.688 450.967 -41.1155 437.076C58.4566 423.186 42.1909 339.49 141.763 325.599C241.335 311.708 270.337 393.628 354.858 381.837C439.378 370.046 399.617 277.347 542.029 257.48C684.44 237.613 657.048 339.68 762.409 324.982" stroke="#003B4A"/>
<path opacity="0.302479" d="M-358.908 891.451C-358.908 891.451 -262.251 778.776 -158.048 764.239C-53.8443 749.703 -24.8425 831.622 74.7297 817.731C174.302 803.841 158.036 720.145 257.608 706.254C357.18 692.363 386.182 774.283 470.703 762.492C555.223 750.701 515.462 658.002 657.874 638.135C800.285 618.268 772.893 720.335 878.254 705.637" stroke="#003B4A"/>
<path opacity="0.302479" d="M-385.831 819.358C-385.831 819.358 -289.174 706.683 -184.971 692.146C-80.7671 677.61 -51.7654 759.529 47.8068 745.638C147.379 731.748 131.113 648.052 230.685 634.161C330.258 620.27 359.259 702.19 443.78 690.399C528.3 678.608 488.54 585.909 630.951 566.042C773.362 546.175 745.97 648.242 851.331 633.544" stroke="#003B4A"/>
<path opacity="0.302479" d="M-412.754 735.796C-412.754 735.796 -316.096 623.121 -211.893 608.584C-107.689 594.048 -78.6877 675.967 20.8845 662.076C120.457 648.186 104.191 564.49 203.763 550.599C303.335 536.708 332.337 618.628 416.858 606.837C501.378 595.046 461.617 502.347 604.029 482.48C746.44 462.613 719.048 564.68 824.409 549.982" stroke="#003B4A"/>
<path opacity="0.302479" d="M-297.908 1144.45C-297.908 1144.45 -201.251 1031.78 -97.0477 1017.24C7.15574 1002.7 36.1575 1084.62 135.73 1070.73C235.302 1056.84 219.036 973.145 318.608 959.254C418.18 945.363 447.182 1027.28 531.703 1015.49C616.223 1003.7 576.462 911.002 718.874 891.135C861.285 871.268 833.893 973.335 939.254 958.637" stroke="#003B4A"/>
<path opacity="0.302479" d="M-324.831 1072.36C-324.831 1072.36 -228.174 959.683 -123.971 945.147C-19.7671 930.61 9.23464 1012.53 108.807 998.638C208.379 984.748 192.113 901.052 291.685 887.161C391.258 873.27 420.259 955.19 504.78 943.399C589.3 931.608 549.54 838.909 691.951 819.042C834.362 799.175 806.97 901.242 912.331 886.544" stroke="#003B4A"/>
<path opacity="0.302479" d="M-351.754 988.796C-351.754 988.796 -255.096 876.121 -150.893 861.584C-46.6895 847.048 -17.6877 928.967 81.8845 915.076C181.457 901.186 165.191 817.49 264.763 803.599C364.335 789.708 393.337 871.628 477.858 859.837C562.378 848.046 522.617 755.347 665.029 735.48C807.44 715.613 780.048 817.68 885.409 802.982" stroke="#003B4A"/>
</g>
</svg>
