<svg width="1440" height="442" viewBox="0 0 1440 442" fill="none" xmlns="http://www.w3.org/2000/svg">
<g id="Group 9">
<g id="Group">
<g id="Path 5">
<g id="Group 24">
<rect id="Mask" x="-67" y="1" width="1539" height="440" rx="20" fill="#003B4A"/>
<mask id="mask0" mask-type="alpha" maskUnits="userSpaceOnUse" x="-67" y="1" width="1539" height="440">
<rect id="Mask_2" x="-67" y="1" width="1539" height="440" rx="20" fill="white"/>
</mask>
<g mask="url(#mask0)">
<g id="Group 24_2" opacity="0.356957">
<path id="Path 16" opacity="0.302479" d="M-43.138 469.56C-43.138 469.56 74.8014 332.024 201.949 314.28C329.096 296.536 364.484 396.53 485.98 379.575C607.476 362.619 587.629 260.456 709.125 243.5C830.622 226.545 866.009 326.539 969.14 312.147C1072.27 297.754 1023.75 184.601 1197.52 160.351C1371.29 136.101 1337.87 260.689 1466.43 242.747" stroke="white"/>
<path id="Path 16 Copy" opacity="0.302479" d="M-12.8148 544.56C-12.8148 544.56 105.125 407.024 232.272 389.28C359.419 371.536 394.807 471.53 516.303 454.575C637.799 437.619 617.952 335.456 739.449 318.5C860.945 301.545 896.332 401.539 999.463 387.147C1102.59 372.754 1054.08 259.601 1227.85 235.351C1401.61 211.101 1368.19 335.689 1496.75 317.747" stroke="white"/>
<path id="Path 16 Copy 2" opacity="0.302479" d="M-75.9886 381.56C-75.9886 381.56 41.9509 244.024 169.098 226.28C296.245 208.536 331.633 308.53 453.129 291.575C574.626 274.619 554.778 172.456 676.275 155.5C797.771 138.545 833.159 238.539 936.289 224.147C1039.42 209.754 990.904 96.6014 1164.67 72.351C1338.44 48.1006 1305.02 172.689 1433.58 154.747" stroke="white"/>
<path id="Path 16 Copy 3" opacity="0.302479" d="M-108.839 279.56C-108.839 279.56 9.10027 142.024 136.248 124.28C263.395 106.536 298.782 206.53 420.279 189.575C541.775 172.619 521.928 70.456 643.424 53.5004C764.92 36.5448 800.308 136.539 903.439 122.147C1006.57 107.754 958.053 -5.39858 1131.82 -29.649C1305.59 -53.8994 1272.17 70.6886 1400.73 52.7473" stroke="white"/>
</g>
</g>
</g>
</g>
</g>
</g>
</svg>
