<svg width="1440" height="1714" viewBox="0 0 1440 1714" fill="none" xmlns="http://www.w3.org/2000/svg">
<path d="M253.844 476.92C437.248 473.181 600.968 501.214 762.624 502.916C924.161 504.946 1072.78 441.428 1222.55 458.097C1371.8 474.947 1522.61 572.132 1586.12 693.194C1649.91 814.731 1626.81 960.294 1662.36 1131.65C1697.79 1303.34 1792.27 1500.98 1712.36 1576.52C1632.99 1651.88 1333.5 1531.37 1135.59 1563.59C937.274 1595.67 794.811 1706.69 614.424 1731.19C433.917 1756.02 216.012 1694.14 50.7501 1573.52C-114.917 1452.74 -181.566 1346.5 -242.641 1160.65C-303.596 974.479 -312.842 782.64 -221.957 649.135C-130.786 516.105 70.9656 480.479 253.844 476.92Z" fill="#EDFAF9"/>
</svg>
