<svg width="1440" height="249" viewBox="0 0 1440 249" fill="none" xmlns="http://www.w3.org/2000/svg">
<rect x="-43" width="1539" height="249" rx="20" fill="#00A98F"/>
<mask id="mask0" mask-type="alpha" maskUnits="userSpaceOnUse" x="-43" y="0" width="1539" height="249">
<rect x="-43" width="1539" height="249" rx="20" fill="white"/>
</mask>
<g mask="url(#mask0)">
<path opacity="0.302479" d="M33.862 345.56C33.862 345.56 151.801 208.024 278.949 190.28C406.096 172.536 441.484 272.53 562.98 255.575C684.476 238.619 664.629 136.456 786.125 119.5C907.622 102.545 943.009 202.539 1046.14 188.147C1149.27 173.754 1100.75 60.6014 1274.52 36.351C1448.29 12.1006 1414.87 136.689 1543.43 118.747" stroke="white"/>
<path opacity="0.302479" d="M64.1852 420.56C64.1852 420.56 182.125 283.024 309.272 265.28C436.419 247.536 471.807 347.53 593.303 330.575C714.799 313.619 694.952 211.456 816.449 194.5C937.945 177.545 973.332 277.539 1076.46 263.147C1179.59 248.754 1131.08 135.601 1304.85 111.351C1478.61 87.1006 1445.19 211.689 1573.75 193.747" stroke="white"/>
<path opacity="0.302479" d="M1.01139 257.56C1.01139 257.56 118.951 120.024 246.098 102.28C373.245 84.5359 408.633 184.53 530.129 167.575C651.626 150.619 631.778 48.456 753.275 31.5004C874.771 14.5448 910.159 114.539 1013.29 100.147C1116.42 85.7543 1067.9 -27.3986 1241.67 -51.649C1415.44 -75.8994 1382.02 48.6886 1510.58 30.7473" stroke="white"/>
<path opacity="0.302479" d="M-31.8392 155.56C-31.8392 155.56 86.1003 18.0243 213.248 0.280095C340.395 -17.4641 375.782 82.5305 497.279 65.5749C618.775 48.6193 598.928 -53.544 720.424 -70.4996C841.92 -87.4552 877.308 12.5394 980.439 -1.85313C1083.57 -16.2457 1035.05 -129.399 1208.82 -153.649C1382.59 -177.899 1349.17 -53.3114 1477.73 -71.2527" stroke="white"/>
</g>
</svg>
