<svg width="39" height="52" viewBox="0 0 39 52" fill="none" xmlns="http://www.w3.org/2000/svg">
<path d="M22.5448 0H16.4548C13.9807 0 11.9716 2.0296 12.0053 4.5113L26.9943 4.52C27.0327 2.0344 25.0218 0 22.5448 0Z" fill="#F8C025"/>
<path d="M9.00488 15.1H11.9549V18.05H9.00488V15.1Z" fill="#F8C025"/>
<path d="M9.00488 39.175H11.9549V42.125H9.00488V39.175Z" fill="#F8C025"/>
<path d="M9.00488 27.125H11.9549V30.075H9.00488V27.125Z" fill="#F8C025"/>
<path fill-rule="evenodd" clip-rule="evenodd" d="M29.3843 2.9986L35.4922 2.9888C37.4484 2.9888 38.9978 4.5689 38.9978 6.4888V47.7C38.9978 49.6299 37.4277 51.2 35.4978 51.2H3.50293C1.57303 51.2 0.00292969 49.6299 0.00292969 47.7V6.4888C0.00292969 4.5366 1.58703 2.9888 3.50273 2.9888C3.56327 2.9888 3.52606 2.98868 3.50889 2.98863L3.50162 2.98861C3.50162 2.9886 3.51986 2.98863 3.58291 2.98874L3.58291 2.98874C3.86746 2.98924 5.06463 2.99132 9.61633 2.9986C9.22403 3.9042 9.00533 4.9019 9.00533 5.95C9.00533 6.7784 9.67693 7.45 10.5053 7.45H28.4953C29.3237 7.45 29.9953 6.7784 29.9953 5.95C29.9953 4.9019 29.7766 3.9042 29.3843 2.9986ZM13.4553 45.125C14.2837 45.125 14.9553 44.4534 14.9553 43.625V37.675C14.9553 36.8466 14.2837 36.175 13.4553 36.175H7.50533C6.67693 36.175 6.00533 36.8466 6.00533 37.675V43.625C6.00533 44.4534 6.67693 45.125 7.50533 45.125H13.4553ZM14.9553 31.575C14.9553 32.4034 14.2837 33.075 13.4553 33.075H7.50533C6.67693 33.075 6.00533 32.4034 6.00533 31.575V25.625C6.00533 24.7966 6.67693 24.125 7.50533 24.125H13.4553C14.2837 24.125 14.9553 24.7966 14.9553 25.625V31.575ZM13.4553 21.05C14.2837 21.05 14.9553 20.3784 14.9553 19.55V13.6C14.9553 12.7716 14.2837 12.1 13.4553 12.1H7.50533C6.67693 12.1 6.00533 12.7716 6.00533 13.6V19.55C6.00533 20.3784 6.67693 21.05 7.50533 21.05H13.4553ZM28.5003 45.125H19.5003C18.6719 45.125 18.0003 44.4534 18.0003 43.625C18.0003 42.7966 18.6719 42.125 19.5003 42.125H28.5003C29.3287 42.125 30.0003 42.7966 30.0003 43.625C30.0003 44.4534 29.3287 45.125 28.5003 45.125ZM19.5003 39.175H31.4953C32.3237 39.175 32.9953 38.5034 32.9953 37.675C32.9953 36.8466 32.3237 36.175 31.4953 36.175H19.5003C18.6719 36.175 18.0003 36.8466 18.0003 37.675C18.0003 38.5034 18.6719 39.175 19.5003 39.175ZM18.0003 31.575C18.0003 30.7466 18.6719 30.075 19.5003 30.075H28.5003C29.3287 30.075 30.0003 30.7466 30.0003 31.575C30.0003 32.4034 29.3287 33.075 28.5003 33.075H19.5003C18.6719 33.075 18.0003 32.4034 18.0003 31.575ZM19.5003 27.125H31.4953C32.3237 27.125 32.9953 26.4534 32.9953 25.625C32.9953 24.7966 32.3237 24.125 31.4953 24.125H19.5003C18.6719 24.125 18.0003 24.7966 18.0003 25.625C18.0003 26.4534 18.6719 27.125 19.5003 27.125ZM18.0003 19.55C18.0003 18.7216 18.6719 18.05 19.5003 18.05H28.5003C29.3287 18.05 30.0003 18.7216 30.0003 19.55C30.0003 20.3784 29.3287 21.05 28.5003 21.05H19.5003C18.6719 21.05 18.0003 20.3784 18.0003 19.55ZM19.5003 15.1H31.4953C32.3237 15.1 32.9953 14.4284 32.9953 13.6C32.9953 12.7716 32.3237 12.1 31.4953 12.1H19.5003C18.6719 12.1 18.0003 12.7716 18.0003 13.6C18.0003 14.4284 18.6719 15.1 19.5003 15.1Z" fill="#F8C025"/>
</svg>
