<svg width="18" height="11" viewBox="0 0 18 11" fill="none" xmlns="http://www.w3.org/2000/svg">
<path fill-rule="evenodd" clip-rule="evenodd" d="M0.779167 6.26758L15.3398 6.26758L11.8655 9.69005C11.561 9.98957 11.561 10.4757 11.8655 10.7752C12.1699 11.0749 12.6634 11.0749 12.9672 10.7752L17.7717 6.0427C18.0761 5.74318 18.0761 5.25707 17.7717 4.95755L12.9672 0.22483C12.8152 0.074851 12.6157 0 12.4164 0C12.2171 0 12.0176 0.074851 11.8655 0.22483C11.561 0.524566 11.561 1.01046 11.8655 1.31019L15.3398 4.73272L0.779167 4.73272C0.348915 4.73272 0 5.07639 0 5.50012C0 5.92391 0.348915 6.26758 0.779167 6.26758Z" fill="white"/>
</svg>
