<svg width="49" height="52" viewBox="0 0 49 52" fill="none" xmlns="http://www.w3.org/2000/svg">
<path d="M48.1997 14.3328C48.1997 6.417 41.7864 0 33.8747 0C26.3217 0 20.1327 5.8504 19.5889 13.2695C28.2301 14.1433 35.3103 20.3722 37.3955 28.6656H48.1997L44.5878 23.8472C46.8352 21.316 48.1997 17.9837 48.1997 14.3328Z" fill="#F8C025"/>
<path fill-rule="evenodd" clip-rule="evenodd" d="M19.0778 16.233C8.7727 15.3248 0 23.4271 0 33.6826C0 38.1451 1.6682 42.2166 4.4144 45.3098L0 51.2H17.5083C27.1773 51.2 35.0167 43.3575 35.0167 33.6826C35.0167 24.5758 28.0511 17.0307 19.0778 16.233ZM7.9583 28.9057H17.5083V32.0924H7.9583V28.9057ZM7.9583 38.4659H27.0584V35.2792H7.9583V38.4659Z" fill="#F8C025"/>
</svg>
