<svg width="226" height="27" viewBox="0 0 226 27" fill="none" xmlns="http://www.w3.org/2000/svg">
<path fill-rule="evenodd" clip-rule="evenodd" d="M54.2198 15.3292C54.2198 13.7865 53.719 12.4913 52.7173 11.4264C51.733 10.3615 50.5242 9.82037 49.1311 9.82037C47.669 9.82037 46.5465 10.3212 45.7521 11.3458V5.94055H43.0581V20.5388H45.7521V19.3069C46.5465 20.3316 47.669 20.8324 49.1311 20.8324C50.5242 20.8324 51.7388 20.3143 52.7173 19.2493C53.719 18.1902 54.2198 16.872 54.2198 15.3292ZM50.6911 17.4591C50.15 18.0002 49.4592 18.2708 48.6245 18.2708C47.7899 18.2708 47.1049 18.0002 46.558 17.4591C46.0169 16.895 45.7463 16.1869 45.7463 15.3292C45.7463 14.4715 46.0169 13.7635 46.558 13.2224C47.0991 12.6583 47.7899 12.3877 48.6245 12.3877C49.4592 12.3877 50.15 12.6583 50.6911 13.2224C51.2552 13.7635 51.5258 14.4715 51.5258 15.3292C51.5258 16.1869 51.2552 16.895 50.6911 17.4591Z" fill="#003B4A"/>
<path fill-rule="evenodd" clip-rule="evenodd" d="M57.4491 5.54333C56.5511 5.54333 55.8027 6.31469 55.8027 7.21269C55.8027 8.11069 56.5568 8.85902 57.4491 8.85902C58.3701 8.85902 59.1184 8.11069 59.1184 7.21269C59.1184 6.31469 58.3643 5.54333 57.4491 5.54333ZM56.1193 10.1139V20.5445H58.8133V10.1139H56.1193Z" fill="#003B4A"/>
<path fill-rule="evenodd" clip-rule="evenodd" d="M71.8917 10.114H69.2726V11.4034C68.4782 10.3443 67.373 9.82043 65.9339 9.82043C64.4717 9.82043 63.2399 10.3443 62.2383 11.3862C61.2366 12.4281 60.7358 13.683 60.7358 15.1624C60.7358 16.6475 61.2366 17.9197 62.2152 18.9616C63.2168 19.9805 64.4487 20.5043 65.9281 20.5043C67.3672 20.5043 68.4724 19.9862 69.2668 18.9213V20.0496C69.2668 21.7016 68.2249 22.6169 66.5325 22.6169C65.2373 22.6169 64.3221 22.1334 63.7982 21.1548L61.5014 22.4672C62.4167 24.1366 64.1954 25.0116 66.4462 25.0116C67.9486 25.0116 69.2208 24.5971 70.2857 23.7394C71.3506 22.8817 71.8917 21.6498 71.8917 20.0438V10.114ZM66.3426 12.3245C67.1945 12.3245 67.8853 12.595 68.4264 13.1361C68.9905 13.66 69.2611 14.3507 69.2611 15.1624C69.2611 16.8317 68.035 18.0233 66.3426 18.0233C64.6559 18.0233 63.4241 16.8317 63.4241 15.1624C63.4241 14.345 63.6946 13.66 64.2357 13.1361C64.7999 12.595 65.4906 12.3245 66.3426 12.3245Z" fill="#003B4A"/>
<path d="M91.2969 10.114H94.1578L90.8364 20.5446H88.269L86.3522 14.2241L84.4353 20.5446H81.8679L78.5522 10.114H81.4132L83.1804 16.5209L85.08 10.114H87.6243L89.5239 16.5382L91.2969 10.114Z" fill="#003B4A"/>
<path fill-rule="evenodd" clip-rule="evenodd" d="M105.82 10.114H103.126V11.3516C102.309 10.327 101.186 9.82617 99.7243 9.82617C98.3313 9.82617 97.1397 10.3673 96.1381 11.4322C95.1595 12.4971 94.6587 13.7923 94.6587 15.335C94.6587 16.8778 95.1595 18.1902 96.1381 19.2552C97.1397 20.3143 98.3255 20.8382 99.7243 20.8382C101.186 20.8382 102.315 20.3374 103.126 19.3127V20.5446H105.82V10.114ZM102.292 17.4592C101.751 18.0003 101.06 18.2708 100.225 18.2708C99.3905 18.2708 98.7054 18.0003 98.1586 17.4592C97.6175 16.895 97.3469 16.187 97.3469 15.3293C97.3469 14.4716 97.6175 13.7635 98.1586 13.2224C98.6997 12.6583 99.3905 12.3878 100.225 12.3878C101.06 12.3878 101.751 12.6583 102.292 13.2224C102.856 13.7635 103.126 14.4716 103.126 15.3293C103.126 16.187 102.856 16.895 102.292 17.4592Z" fill="#003B4A"/>
<path d="M115.122 10.114H118.087L114.121 20.5446H111.053L107.086 10.114H110.051L112.578 17.4189L115.122 10.114Z" fill="#003B4A"/>
<path fill-rule="evenodd" clip-rule="evenodd" d="M124.183 18.3975C122.577 18.3975 121.599 17.747 121.242 16.4345H129.111C129.174 16.0373 129.214 15.6862 129.214 15.3293C129.214 13.7693 128.713 12.4741 127.712 11.4092C126.733 10.35 125.461 9.82617 123.936 9.82617C122.33 9.82617 120.994 10.3442 119.969 11.4092C118.951 12.4511 118.427 13.7635 118.427 15.3293C118.427 16.9123 118.951 18.2305 119.992 19.2724C121.034 20.3143 122.41 20.8382 124.143 20.8382C126.146 20.8382 127.666 20.0841 128.69 18.6047L126.52 17.3555C125.996 18.0406 125.208 18.3975 124.183 18.3975ZM123.936 12.2439C125.162 12.2439 126.209 12.9346 126.52 14.3507H121.201C121.518 13.0152 122.497 12.2439 123.936 12.2439Z" fill="#003B4A"/>
<path d="M137.325 19.2494C136.283 18.1845 135.759 16.8893 135.759 15.3293C135.759 13.7635 136.283 12.4684 137.325 11.4092C138.39 10.3442 139.702 9.82617 141.268 9.82617C143.294 9.82617 145.085 10.8681 145.942 12.5202L143.628 13.8787C143.214 13.021 142.316 12.4799 141.251 12.4799C139.645 12.4799 138.453 13.6714 138.453 15.3408C138.453 16.1525 138.724 16.8432 139.248 17.3843C139.771 17.9082 140.439 18.1787 141.251 18.1787C142.333 18.1787 143.231 17.6549 143.651 16.8029L145.988 18.1384C145.073 19.7847 143.294 20.8497 141.274 20.8497C139.708 20.8382 138.39 20.3143 137.325 19.2494Z" fill="#003B4A"/>
<path fill-rule="evenodd" clip-rule="evenodd" d="M148.285 19.2552C149.344 20.3143 150.663 20.8382 152.205 20.8382C153.748 20.8382 155.06 20.3143 156.125 19.2552C157.19 18.196 157.731 16.8778 157.731 15.335C157.731 13.7923 157.19 12.4971 156.125 11.4322C155.066 10.3673 153.748 9.82617 152.205 9.82617C150.663 9.82617 149.35 10.3673 148.285 11.4322C147.226 12.4971 146.702 13.7923 146.702 15.335C146.702 16.8778 147.226 18.196 148.285 19.2552ZM154.232 17.3958C153.685 17.9369 153.017 18.2075 152.205 18.2075C151.388 18.2075 150.72 17.9369 150.179 17.3958C149.655 16.8547 149.385 16.164 149.385 15.3293C149.385 14.4946 149.655 13.8038 150.179 13.2627C150.726 12.7216 151.394 12.4511 152.205 12.4511C153.023 12.4511 153.69 12.7216 154.232 13.2627C154.773 13.8038 155.043 14.4946 155.043 15.3293C155.043 16.164 154.778 16.8547 154.232 17.3958Z" fill="#003B4A"/>
<path d="M175.116 14.1205V20.5446H172.422V14.3047C172.422 13.0555 171.777 12.3245 170.672 12.3245C169.44 12.3245 168.732 13.1591 168.732 14.6846V20.5504H166.038V14.3047C166.038 13.0555 165.393 12.3245 164.288 12.3245C163.096 12.3245 162.325 13.1591 162.325 14.6846V20.5504H159.631V10.114H162.325V11.2192C162.952 10.2809 163.908 9.82043 165.226 9.82043C166.498 9.82043 167.46 10.3212 168.064 11.3229C168.755 10.3212 169.797 9.82043 171.172 9.82043C173.567 9.82043 175.116 11.5128 175.116 14.1205Z" fill="#003B4A"/>
<path fill-rule="evenodd" clip-rule="evenodd" d="M188.574 15.3293C188.574 13.7866 188.073 12.4914 187.072 11.4265C186.087 10.3615 184.879 9.82043 183.486 9.82043C182.023 9.82043 180.901 10.3212 180.107 11.3459V10.114H177.413V24.7122H180.107V19.307C180.901 20.3316 182.023 20.8324 183.486 20.8324C184.879 20.8324 186.093 20.3144 187.072 19.2494C188.073 18.1902 188.574 16.872 188.574 15.3293ZM185.046 17.4592C184.504 18.0003 183.814 18.2708 182.979 18.2708C182.144 18.2708 181.459 18.0003 180.912 17.4592C180.371 16.8951 180.101 16.187 180.101 15.3293C180.101 14.4716 180.371 13.7636 180.912 13.2225C181.454 12.6583 182.144 12.3878 182.979 12.3878C183.814 12.3878 184.504 12.6583 185.046 13.2225C185.61 13.7636 185.88 14.4716 185.88 15.3293C185.88 16.187 185.61 16.8951 185.046 17.4592Z" fill="#003B4A"/>
<path fill-rule="evenodd" clip-rule="evenodd" d="M201.094 10.114H198.4V11.3516C197.583 10.327 196.46 9.82617 194.998 9.82617C193.605 9.82617 192.414 10.3673 191.412 11.4322C190.433 12.4971 189.933 13.7923 189.933 15.335C189.933 16.8778 190.433 18.1902 191.412 19.2552C192.414 20.3143 193.599 20.8382 194.998 20.8382C196.46 20.8382 197.589 20.3374 198.4 19.3127V20.5446H201.094V10.114ZM197.566 17.4592C197.025 18.0003 196.334 18.2708 195.499 18.2708C194.664 18.2708 193.979 18.0003 193.433 17.4592C192.891 16.895 192.621 16.187 192.621 15.3293C192.621 14.4716 192.891 13.7635 193.433 13.2224C193.974 12.6583 194.664 12.3878 195.499 12.3878C196.334 12.3878 197.025 12.6583 197.566 13.2224C198.13 13.7635 198.4 14.4716 198.4 15.3293C198.4 16.187 198.13 16.895 197.566 17.4592Z" fill="#003B4A"/>
<path d="M212.152 10.966C212.901 11.7373 213.281 12.7792 213.281 14.1377V20.5446H210.587V14.4716C210.587 13.0728 209.775 12.3245 208.52 12.3245C207.121 12.3245 206.223 13.1822 206.223 14.9091V20.5446H203.529V10.114H206.223V11.2826C206.868 10.304 207.916 9.82043 209.332 9.82043C210.483 9.82043 211.421 10.1946 212.152 10.966Z" fill="#003B4A"/>
<path d="M222.145 10.114H225.024L221.224 20.5446C220.142 23.5495 218.387 24.8619 215.716 24.718V22.214C217.155 22.237 217.949 21.6326 218.45 20.2107L214.173 10.114H217.114L219.826 17.1253L222.145 10.114Z" fill="#003B4A"/>
<path d="M35.402 12.2726V13.9708C34.5155 12.5605 33.1915 11.4264 31.5394 10.7472C28.3792 9.44049 24.9138 10.1255 22.4961 12.5432L8.27206 26.7673H6.09038C0.685122 26.7673 -2.02039 20.2337 1.80186 16.4115L14.5696 3.64379C22.2601 -4.04676 35.402 1.3988 35.402 12.2726Z" fill="#003B4A"/>
<path d="M34.0837 19.6696C34.0837 23.5897 30.9004 26.773 26.9803 26.773L13.021 26.7673L24.2114 15.5768C26.2262 13.5621 28.7878 13.6081 30.5147 14.3277C32.2416 15.0415 34.0837 16.8202 34.0837 19.6696Z" fill="#003B4A"/>
</svg>
