<svg width="275" height="33" viewBox="0 0 275 33" fill="none" xmlns="http://www.w3.org/2000/svg">
<path fill-rule="evenodd" clip-rule="evenodd" d="M66.1215 18.6944C66.1215 16.813 65.5108 15.2335 64.2893 13.9348C63.0889 12.6361 61.6147 11.9762 59.9159 11.9762C58.1328 11.9762 56.7639 12.587 55.7951 13.8365V7.24475H52.5098V25.0475H55.7951V23.5452C56.7639 24.7948 58.1328 25.4055 59.9159 25.4055C61.6147 25.4055 63.0959 24.7737 64.2893 23.475C65.5108 22.1833 66.1215 20.5757 66.1215 18.6944ZM61.8183 21.2918C61.1584 21.9517 60.316 22.2816 59.2981 22.2816C58.2802 22.2816 57.4448 21.9517 56.7779 21.2918C56.118 20.6038 55.7881 19.7404 55.7881 18.6944C55.7881 17.6484 56.118 16.7849 56.7779 16.1251C57.4378 15.4371 58.2802 15.1072 59.2981 15.1072C60.316 15.1072 61.1584 15.4371 61.8183 16.1251C62.5062 16.7849 62.8362 17.6484 62.8362 18.6944C62.8362 19.7404 62.5062 20.6038 61.8183 21.2918Z" fill="#003B4A"/>
<path fill-rule="evenodd" clip-rule="evenodd" d="M70.06 6.76038C68.9648 6.76038 68.0522 7.70106 68.0522 8.79618C68.0522 9.8913 68.9719 10.8039 70.06 10.8039C71.1832 10.8039 72.0958 9.8913 72.0958 8.79618C72.0958 7.70106 71.1761 6.76038 70.06 6.76038ZM68.4383 12.3343V25.0545H71.7237V12.3343H68.4383Z" fill="#003B4A"/>
<path fill-rule="evenodd" clip-rule="evenodd" d="M87.6731 12.3342H84.479V13.9067C83.5103 12.615 82.1624 11.9762 80.4074 11.9762C78.6243 11.9762 77.1221 12.615 75.9006 13.8856C74.6791 15.1563 74.0684 16.6866 74.0684 18.4908C74.0684 20.3019 74.6791 21.8533 75.8725 23.124C77.094 24.3665 78.5963 25.0053 80.4004 25.0053C82.1554 25.0053 83.5032 24.3735 84.472 23.0748V24.4507C84.472 26.4655 83.2014 27.5817 81.1375 27.5817C79.558 27.5817 78.4418 26.992 77.803 25.7986L75.002 27.3991C76.1182 29.4349 78.2874 30.502 81.0322 30.502C82.8644 30.502 84.4158 29.9965 85.7145 28.9506C87.0132 27.9046 87.6731 26.4023 87.6731 24.4437V12.3342ZM80.9058 15.0299C81.9448 15.0299 82.7872 15.3598 83.4471 16.0197C84.135 16.6585 84.465 17.5009 84.465 18.4908C84.465 20.5266 82.9697 21.9797 80.9058 21.9797C78.849 21.9797 77.3467 20.5266 77.3467 18.4908C77.3467 17.4939 77.6766 16.6585 78.3365 16.0197C79.0245 15.3598 79.8669 15.0299 80.9058 15.0299Z" fill="#003B4A"/>
<path d="M111.337 12.3342H114.826L110.776 25.0545H107.645L105.307 17.3465L102.969 25.0545H99.8384L95.7949 12.3342H99.2839L101.439 20.1475L103.756 12.3342H106.858L109.175 20.1685L111.337 12.3342Z" fill="#003B4A"/>
<path fill-rule="evenodd" clip-rule="evenodd" d="M129.049 12.3342H125.763V13.8435C124.767 12.5939 123.398 11.9832 121.615 11.9832C119.916 11.9832 118.463 12.643 117.241 13.9417C116.048 15.2404 115.437 16.8199 115.437 18.7013C115.437 20.5827 116.048 22.1832 117.241 23.4819C118.463 24.7736 119.909 25.4124 121.615 25.4124C123.398 25.4124 124.774 24.8017 125.763 23.5521V25.0544H129.049V12.3342ZM124.746 21.2917C124.086 21.9516 123.243 22.2815 122.225 22.2815C121.207 22.2815 120.372 21.9516 119.705 21.2917C119.045 20.6037 118.715 19.7403 118.715 18.6943C118.715 17.6483 119.045 16.7848 119.705 16.125C120.365 15.437 121.207 15.1071 122.225 15.1071C123.243 15.1071 124.086 15.437 124.746 16.125C125.433 16.7848 125.763 17.6483 125.763 18.6943C125.763 19.7403 125.433 20.6037 124.746 21.2917Z" fill="#003B4A"/>
<path d="M140.393 12.3342H144.008L139.172 25.0545H135.43L130.593 12.3342H134.209L137.29 21.2426L140.393 12.3342Z" fill="#003B4A"/>
<path fill-rule="evenodd" clip-rule="evenodd" d="M151.443 22.4359C149.484 22.4359 148.291 21.6427 147.856 20.0421H157.452C157.529 19.5577 157.578 19.1295 157.578 18.6943C157.578 16.7919 156.968 15.2124 155.746 13.9137C154.553 12.622 153.001 11.9832 151.141 11.9832C149.182 11.9832 147.554 12.615 146.304 13.9137C145.062 15.1843 144.423 16.7848 144.423 18.6943C144.423 20.6248 145.062 22.2324 146.332 23.503C147.603 24.7736 149.281 25.4124 151.394 25.4124C153.837 25.4124 155.69 24.4928 156.94 22.6887L154.293 21.1653C153.654 22.0007 152.692 22.4359 151.443 22.4359ZM151.141 14.9316C152.636 14.9316 153.914 15.774 154.293 17.5009H147.806C148.193 15.8722 149.386 14.9316 151.141 14.9316Z" fill="#003B4A"/>
<path d="M167.469 23.4749C166.199 22.1762 165.56 20.5967 165.56 18.6943C165.56 16.7848 166.199 15.2053 167.469 13.9137C168.768 12.615 170.369 11.9832 172.278 11.9832C174.749 11.9832 176.932 13.2538 177.978 15.2685L175.156 16.9252C174.651 15.8793 173.556 15.2194 172.257 15.2194C170.299 15.2194 168.845 16.6725 168.845 18.7083C168.845 19.6981 169.175 20.5405 169.814 21.2004C170.453 21.8392 171.267 22.1692 172.257 22.1692C173.577 22.1692 174.672 21.5304 175.184 20.4914L178.035 22.12C176.918 24.1278 174.749 25.4265 172.285 25.4265C170.376 25.4124 168.768 24.7736 167.469 23.4749Z" fill="#003B4A"/>
<path fill-rule="evenodd" clip-rule="evenodd" d="M180.835 23.4819C182.127 24.7736 183.735 25.4124 185.616 25.4124C187.497 25.4124 189.098 24.7736 190.397 23.4819C191.695 22.1902 192.355 20.5827 192.355 18.7013C192.355 16.8199 191.695 15.2404 190.397 13.9417C189.105 12.643 187.497 11.9832 185.616 11.9832C183.735 11.9832 182.134 12.643 180.835 13.9417C179.544 15.2404 178.905 16.8199 178.905 18.7013C178.905 20.5827 179.544 22.1902 180.835 23.4819ZM188.087 21.2145C187.42 21.8743 186.606 22.2043 185.616 22.2043C184.619 22.2043 183.805 21.8743 183.145 21.2145C182.506 20.5546 182.176 19.7122 182.176 18.6943C182.176 17.6764 182.506 16.834 183.145 16.1741C183.812 15.5142 184.626 15.1843 185.616 15.1843C186.613 15.1843 187.427 15.5142 188.087 16.1741C188.747 16.834 189.077 17.6764 189.077 18.6943C189.077 19.7122 188.754 20.5546 188.087 21.2145Z" fill="#003B4A"/>
<path d="M213.556 17.2201V25.0545H210.27V17.4448C210.27 15.9214 209.484 15.0299 208.136 15.0299C206.634 15.0299 205.77 16.0478 205.77 17.9081V25.0615H202.485V17.4448C202.485 15.9214 201.699 15.0299 200.351 15.0299C198.898 15.0299 197.957 16.0478 197.957 17.9081V25.0615H194.672V12.3342H197.957V13.6821C198.722 12.5378 199.888 11.9762 201.495 11.9762C203.047 11.9762 204.219 12.5869 204.956 13.8084C205.799 12.5869 207.069 11.9762 208.747 11.9762C211.667 11.9762 213.556 14.0401 213.556 17.2201Z" fill="#003B4A"/>
<path fill-rule="evenodd" clip-rule="evenodd" d="M229.968 18.6943C229.968 16.813 229.357 15.2335 228.136 13.9348C226.936 12.6361 225.461 11.9762 223.763 11.9762C221.979 11.9762 220.611 12.5869 219.642 13.8365V12.3342H216.356V30.1369H219.642V23.5452C220.611 24.7947 221.979 25.4055 223.763 25.4055C225.461 25.4055 226.943 24.7737 228.136 23.475C229.357 22.1833 229.968 20.5757 229.968 18.6943ZM225.665 21.2917C225.005 21.9516 224.163 22.2816 223.145 22.2816C222.127 22.2816 221.292 21.9516 220.625 21.2917C219.965 20.6038 219.635 19.7403 219.635 18.6943C219.635 17.6484 219.965 16.7849 220.625 16.125C221.284 15.4371 222.127 15.1071 223.145 15.1071C224.163 15.1071 225.005 15.4371 225.665 16.125C226.353 16.7849 226.683 17.6484 226.683 18.6943C226.683 19.7403 226.353 20.6038 225.665 21.2917Z" fill="#003B4A"/>
<path fill-rule="evenodd" clip-rule="evenodd" d="M245.237 12.3342H241.951V13.8435C240.955 12.5939 239.586 11.9832 237.803 11.9832C236.104 11.9832 234.651 12.643 233.429 13.9417C232.236 15.2404 231.625 16.8199 231.625 18.7013C231.625 20.5827 232.236 22.1832 233.429 23.4819C234.651 24.7736 236.097 25.4124 237.803 25.4124C239.586 25.4124 240.962 24.8017 241.951 23.5521V25.0544H245.237V12.3342ZM240.934 21.2917C240.274 21.9516 239.431 22.2815 238.413 22.2815C237.395 22.2815 236.56 21.9516 235.893 21.2917C235.233 20.6037 234.903 19.7403 234.903 18.6943C234.903 17.6483 235.233 16.7848 235.893 16.125C236.553 15.437 237.395 15.1071 238.413 15.1071C239.431 15.1071 240.274 15.437 240.934 16.125C241.621 16.7848 241.951 17.6483 241.951 18.6943C241.951 19.7403 241.621 20.6037 240.934 21.2917Z" fill="#003B4A"/>
<path d="M258.723 13.3732C259.635 14.3139 260.098 15.5845 260.098 17.2412V25.0545H256.813V17.6484C256.813 15.9425 255.823 15.0299 254.293 15.0299C252.587 15.0299 251.492 16.0759 251.492 18.1819V25.0545H248.207V12.3342H251.492V13.7593C252.278 12.5659 253.556 11.9762 255.283 11.9762C256.687 11.9762 257.831 12.4325 258.723 13.3732Z" fill="#003B4A"/>
<path d="M270.909 12.3342H274.419L269.786 25.0545C268.466 28.7189 266.325 30.3195 263.068 30.144V27.0903C264.823 27.1183 265.792 26.3812 266.402 24.6473L261.187 12.3342H264.774L268.08 20.8846L270.909 12.3342Z" fill="#003B4A"/>
<path d="M43.1729 14.9666V17.0375C42.0918 15.3176 40.4772 13.9347 38.4625 13.1063C34.6085 11.5128 30.3825 12.3482 27.4341 15.2966L10.0876 32.643H7.42706C0.835277 32.643 -2.46412 24.6753 2.19716 20.014L17.7675 4.44366C27.1462 -4.93506 43.1729 1.70586 43.1729 14.9666Z" fill="#003B4A"/>
<path d="M41.5656 23.9873C41.5656 28.768 37.6835 32.65 32.9029 32.65L15.8794 32.643L29.5263 18.9961C31.9833 16.5391 35.1072 16.5953 37.2132 17.4728C39.3192 18.3433 41.5656 20.5124 41.5656 23.9873Z" fill="#00A98F"/>
</svg>
