<svg width="22" height="23" viewBox="0 0 22 23" fill="none" xmlns="http://www.w3.org/2000/svg">
<path d="M20.014 14.7829C18.6818 14.7829 17.3737 14.5746 16.1341 14.1649C15.5267 13.9578 14.78 14.1478 14.4093 14.5286L11.9626 16.3756C9.12509 14.8609 7.37726 13.1137 5.8833 10.2975L7.67595 7.91455C8.1417 7.44943 8.30875 6.77 8.1086 6.1325C7.6972 4.8864 7.48822 3.57893 7.48822 2.24613C7.48827 1.2833 6.70497 0.5 5.7422 0.5H1.74607C0.783303 0.5 0 1.2833 0 2.24607C0 13.2819 8.97815 22.26 20.014 22.26C20.9768 22.26 21.7601 21.4767 21.7601 20.5139V16.529C21.76 15.5663 20.9767 14.7829 20.014 14.7829Z" fill="#D5EEEC"/>
</svg>
