<svg width="1156" height="978" viewBox="0 0 1156 978" fill="none" xmlns="http://www.w3.org/2000/svg">
<path opacity="0.329613" d="M777.041 182.613C834.477 222.877 851.047 281.777 899.002 318.723C946.745 355.739 1025.62 370.735 1061.98 409.365C1098.09 447.928 1091.73 510.26 1046.22 559.868C1000.54 609.678 915.758 646.899 834.912 704.862C753.855 762.895 676.781 841.805 612.251 845.808C547.977 849.877 496.502 779.105 419.457 743.873C342.369 708.506 239.966 708.744 172.345 675.211C104.512 641.747 71.716 574.579 86.2349 502.155C100.71 429.597 162.712 351.715 243.583 283.773C324.666 215.763 424.408 157.76 523.237 139.339C621.899 121.12 719.859 142.414 777.041 182.613Z" fill="#D5EEEC"/>
</svg>
