<svg width="1440" height="249" viewBox="0 0 1440 249" fill="none" xmlns="http://www.w3.org/2000/svg">
<rect x="-50" width="1539" height="249" rx="20" fill="#003B4A"/>
<mask id="mask0" mask-type="alpha" maskUnits="userSpaceOnUse" x="-50" y="0" width="1539" height="249">
<rect x="-50" width="1539" height="249" rx="20" fill="white"/>
</mask>
<g mask="url(#mask0)">
<path opacity="0.302479" d="M26.862 345.56C26.862 345.56 144.801 208.024 271.949 190.28C399.096 172.536 434.484 272.53 555.98 255.575C677.476 238.619 657.629 136.456 779.125 119.5C900.622 102.545 936.009 202.539 1039.14 188.147C1142.27 173.754 1093.75 60.6014 1267.52 36.351C1441.29 12.1005 1407.87 136.689 1536.43 118.747" stroke="white"/>
<path opacity="0.302479" d="M57.1852 420.56C57.1852 420.56 175.125 283.024 302.272 265.28C429.419 247.536 464.807 347.53 586.303 330.575C707.799 313.619 687.952 211.456 809.449 194.5C930.945 177.545 966.332 277.539 1069.46 263.147C1172.59 248.754 1124.08 135.601 1297.85 111.351C1471.61 87.1006 1438.19 211.689 1566.75 193.747" stroke="white"/>
<path opacity="0.302479" d="M-5.98861 257.56C-5.98861 257.56 111.951 120.024 239.098 102.28C366.245 84.5358 401.633 184.53 523.129 167.575C644.626 150.619 624.778 48.4559 746.275 31.5004C867.771 14.5448 903.159 114.539 1006.29 100.147C1109.42 85.7543 1060.9 -27.3986 1234.67 -51.649C1408.44 -75.8995 1375.02 48.6886 1503.58 30.7472" stroke="white"/>
<path opacity="0.302479" d="M-38.8392 155.56C-38.8392 155.56 79.1003 18.0243 206.248 0.280065C333.395 -17.4642 368.782 82.5305 490.279 65.5749C611.775 48.6193 591.928 -53.5441 713.424 -70.4996C834.92 -87.4552 870.308 12.5394 973.439 -1.85316C1076.57 -16.2457 1028.05 -129.399 1201.82 -153.649C1375.59 -177.899 1342.17 -53.3114 1470.73 -71.2528" stroke="white"/>
</g>
</svg>
