<svg width="44" height="52" viewBox="0 0 44 52" fill="none" xmlns="http://www.w3.org/2000/svg">
<path d="M43.3538 41.2591C43.2098 40.4431 42.4318 39.8981 41.6158 40.0421L40.1388 40.3031L36.7528 21.1071C36.6088 20.2921 35.8308 19.7481 35.0148 19.8911L30.0668 20.7631L31.2168 27.4561C31.3568 28.2701 30.8118 29.0441 29.9988 29.1881L24.0288 30.2401C23.1862 30.3854 22.4256 29.8134 22.2898 29.0171L21.1418 22.3361L15.8088 23.2761L15.2888 20.3211L27.0978 18.2401L25.7958 10.8581C25.6518 10.0431 24.8738 9.4981 24.0578 9.6421L20.5958 10.2521L21.0598 12.8831C21.2038 13.6991 20.6598 14.4771 19.8438 14.6211C19.0485 14.7658 18.252 14.2354 18.1058 13.4051L17.6418 10.7731L13.7298 11.4621L12.2158 2.8641C12.1068 2.2431 11.6208 1.7571 10.9988 1.6471L1.78376 0.0231036C0.967765 -0.120896 0.189765 0.424104 0.0457649 1.2401C-0.0972352 2.0551 0.446765 2.8331 1.26276 2.9771L9.44376 4.4191C12.2236 20.2861 12.0618 19.3505 15.3818 38.1581C21.1404 33.5562 29.9286 37.5302 29.9898 45.1381C33.7473 44.4756 40.1169 43.3527 42.1368 42.9971C42.9528 42.8531 43.4968 42.0751 43.3538 41.2591Z" fill="#F8C025"/>
<path d="M24.9912 27.0239L28.007 26.4924L27.1118 21.2837L24.0962 21.8152L24.9912 27.0239Z" fill="#F8C025"/>
<path fill-rule="evenodd" clip-rule="evenodd" d="M15.0797 46.2429C14.5035 42.9769 16.6817 39.8697 19.9468 39.2941C23.2048 38.72 26.3228 40.9025 26.8973 44.1595C27.5478 47.8462 24.7032 51.1999 20.9858 51.1999C18.1303 51.1999 15.5924 49.1492 15.0797 46.2429ZM18.034 45.7218C18.3213 47.3499 19.8804 48.441 21.5096 48.1538C23.1425 47.866 24.2307 46.3124 23.943 44.6808V44.6807C23.6556 43.0521 22.0958 41.9615 20.4675 42.2487C18.8342 42.5364 17.7463 44.0905 18.034 45.7218Z" fill="#F8C025"/>
</svg>
