<svg width="52" height="52" viewBox="0 0 52 52" fill="none" xmlns="http://www.w3.org/2000/svg">
<path d="M35.6309 7.5387C35.6309 6.7103 34.9593 6.0387 34.1309 6.0387H27.0952V1.5004C27.0952 0.671997 26.4236 0.000396729 25.5952 0.000396729C24.7668 0.000396729 24.0952 0.671997 24.0952 1.5004V6.0386H16.5952C15.7668 6.0386 15.0952 6.7102 15.0952 7.5386V12.1006H35.6309V7.5387Z" fill="#F8C025"/>
<path d="M33.1055 19.6008H42.1055V16.6007C42.1055 15.7723 41.4339 15.1007 40.6055 15.1007H33.1055V19.6008Z" fill="#F8C025"/>
<path d="M33.1055 22.6009H42.1055V27.101H33.1055V22.6009Z" fill="#F8C025"/>
<path d="M21.1055 15.1007H30.1055V19.6008H21.1055L21.1055 15.1007Z" fill="#F8C025"/>
<path d="M27.6215 25.378L30.1055 26.623V22.6009H21.1055V26.623L23.5895 25.378C24.8572 24.743 26.3516 24.742 27.6215 25.378Z" fill="#F8C025"/>
<path d="M18.1056 15.1007H10.6006C9.77219 15.1007 9.10059 15.7723 9.10059 16.6007V19.6008H18.1056V15.1007Z" fill="#F8C025"/>
<path d="M42.1054 30.1011H37.0454L42.1054 32.6371V30.1011Z" fill="#F8C025"/>
<path d="M9.10059 22.6009H18.1056V27.101H9.10059V22.6009Z" fill="#F8C025"/>
<path d="M9.10059 30.1011V32.6401L14.1656 30.1011H9.10059Z" fill="#F8C025"/>
<path d="M5.29399 42.2439C6.79839 42.3714 8.13889 43.2388 8.86359 44.5668C9.50859 45.4715 10.8577 45.3804 11.4003 44.4558C13.1355 41.5001 17.4269 41.4974 19.1629 44.4574C19.7425 45.4461 21.1917 45.4454 21.7715 44.4542C23.5348 41.4397 27.9314 41.5019 29.6041 44.5669C30.2489 45.4716 31.5982 45.3805 32.1408 44.4559C33.876 41.5002 38.1674 41.4975 39.9034 44.4575C40.483 45.4462 41.9322 45.4455 42.512 44.4543C43.2341 43.2201 44.5087 42.408 45.9145 42.2547C46.3327 40.6066 46.5224 39.5114 46.5406 39.4036C46.6508 38.7533 46.3234 38.1074 45.7338 37.8119L26.2777 28.06C25.8547 27.8481 25.3565 27.8481 24.9335 28.06L5.47739 37.8116C4.88779 38.1071 4.56039 38.753 4.67059 39.4033C4.68879 39.5109 4.87769 40.6017 5.29399 42.2439Z" fill="#F8C025"/>
<path d="M50.1675 47.9781C49.1646 47.6494 48.3113 46.9794 47.7521 46.0848C47.2457 45.0116 45.7163 44.9175 45.1013 45.9688C43.3608 48.9443 39.0505 48.934 37.3154 45.975C36.7353 44.9859 35.3059 44.9897 34.7279 45.9744C33.0201 48.8839 28.808 48.9565 27.0113 46.0842C26.5045 45.0119 24.9758 44.9176 24.3608 45.9689C22.6203 48.9444 18.31 48.9341 16.5749 45.9751C15.9948 44.986 14.5654 44.9898 13.9874 45.9745C12.2796 48.884 8.0675 48.9566 6.2708 46.0843C5.7627 45.0094 4.2341 44.9199 3.6203 45.969C3.048 46.9473 2.1382 47.6694 1.0586 48.0022C0.266899 48.2462 -0.177001 49.0858 0.0668987 49.8775C0.310899 50.6691 1.1505 51.1131 1.9421 50.8692C3.066 50.5228 4.079 49.9239 4.9134 49.1261C7.8208 51.8881 12.3637 51.8963 15.2805 49.1232C18.1886 51.8888 22.7346 51.8966 25.6508 49.1233C28.5537 51.884 33.0983 51.9019 36.021 49.1232C38.9222 51.8823 43.4659 51.9031 46.3888 49.1256C47.1918 49.893 48.1611 50.4779 49.2332 50.8292C50.0205 51.0873 50.8678 50.6582 51.1257 49.8709C51.3838 49.0834 50.9547 48.2361 50.1675 47.9781Z" fill="#F8C025"/>
</svg>
