<svg width="52" height="52" viewBox="0 0 52 52" fill="none" xmlns="http://www.w3.org/2000/svg">
<path d="M21.8 3.05H49.7C50.5284 3.05 51.2 2.3784 51.2 1.55C51.2 0.721603 50.5284 0.0500031 49.7 0.0500031H21.542C21.928 1.1385 21.7577 1.8804 21.8 3.05Z" fill="#F8C025"/>
<path d="M1.5 3.05H7.1C7.1423 1.8806 6.9718 1.139 7.358 0.0500031H1.5C0.6716 0.0500031 0 0.721603 0 1.55C0 2.3784 0.6716 3.05 1.5 3.05Z" fill="#F8C025"/>
<path d="M36.2596 36.15H25.6C28.0813 36.15 30.1 38.1687 30.1 40.65C30.1 43.1313 28.0813 45.15 25.6 45.15C23.1187 45.15 21.1 43.1313 21.1 40.65C21.1 38.1687 23.1187 36.15 25.6 36.15H14.9404C19.1578 40.2785 19.1489 47.0302 14.9404 51.15H36.2596C32.0423 47.0216 32.0511 40.2699 36.2596 36.15Z" fill="#F8C025"/>
<path d="M25.6001 42.15C26.4285 42.15 27.1001 41.4784 27.1001 40.65C27.1001 39.8216 26.4285 39.15 25.6001 39.15C24.7717 39.15 24.1001 39.8216 24.1001 40.65C24.1001 41.4784 24.7717 42.15 25.6001 42.15Z" fill="#F8C025"/>
<path d="M11.5999 9.05H13.0999V10.908C11.215 11.5712 9.95401 13.4303 10.1172 15.5057L3.70281 18.774C3.16351 19.0488 2.84231 19.6206 2.88811 20.224L3.15751 23.7737C3.22021 24.5999 3.94061 25.2185 4.76681 25.1559C5.59281 25.0932 6.21161 24.3727 6.14891 23.5467L5.95511 20.9934L11.3398 18.2498C11.3659 18.2772 11.3911 18.3051 11.418 18.332C13.1855 20.0994 16.0992 20.1004 17.86 18.2497L23.2447 20.9933L23.0509 23.5466C22.9882 24.3726 23.6071 25.0931 24.433 25.1558C25.259 25.2184 25.9796 24.5997 26.0423 23.7736L26.3117 20.2239C26.3575 19.6205 26.0362 19.0486 25.497 18.7739L19.0827 15.5057C19.2457 13.4326 17.9871 11.5719 16.1 10.908V9.05H17.3C18.1284 9.05 18.8 8.3784 18.8 7.55V1.55C18.8 0.721603 18.1284 0.0500031 17.3 0.0500031H11.6C10.7716 0.0500031 10.1 0.721603 10.1 1.55V7.55C10.0999 8.3784 10.7715 9.05 11.5999 9.05Z" fill="#F8C025"/>
<path fill-rule="evenodd" clip-rule="evenodd" d="M0.100098 43.65C0.100098 39.5145 3.4646 36.15 7.6001 36.15C11.7356 36.15 15.1001 39.5145 15.1001 43.65C15.1001 47.7855 11.7356 51.15 7.6001 51.15C3.4646 51.15 0.100098 47.7855 0.100098 43.65ZM6.1001 43.65C6.1001 44.4784 6.7717 45.15 7.6001 45.15C8.4285 45.15 9.1001 44.4784 9.1001 43.65C9.1001 42.8216 8.4285 42.15 7.6001 42.15C6.7717 42.15 6.1001 42.8216 6.1001 43.65Z" fill="#F8C025"/>
<path fill-rule="evenodd" clip-rule="evenodd" d="M36.1001 43.65C36.1001 39.5145 39.4646 36.15 43.6001 36.15C47.7356 36.15 51.1001 39.5145 51.1001 43.65C51.1001 47.7855 47.7356 51.15 43.6001 51.15C39.4646 51.15 36.1001 47.7855 36.1001 43.65ZM42.1001 43.65C42.1001 44.4784 42.7717 45.15 43.6001 45.15C44.4285 45.15 45.1001 44.4784 45.1001 43.65C45.1001 42.8216 44.4285 42.15 43.6001 42.15C42.7717 42.15 42.1001 42.8216 42.1001 43.65Z" fill="#F8C025"/>
<path d="M8.6001 24.15C7.7721 24.15 7.1001 24.822 7.1001 25.65V33.15H22.1001V25.65C22.1001 24.822 21.4281 24.15 20.6001 24.15H16.1001V27.65C16.1001 28.4784 15.4285 29.15 14.6001 29.15C13.7717 29.15 13.1001 28.4784 13.1001 27.65V24.15H8.6001Z" fill="#F8C025"/>
<path d="M30.1001 24.15C29.2721 24.15 28.6001 24.822 28.6001 25.65V33.15H43.6001V25.65C43.6001 24.822 42.9281 24.15 42.1001 24.15H37.6001V27.65C37.6001 28.4784 36.9285 29.15 36.1001 29.15C35.2717 29.15 34.6001 28.4784 34.6001 27.65V24.15H30.1001Z" fill="#F8C025"/>
</svg>
