<?xml version="1.0" encoding="UTF-8"?><!DOCTYPE svg PUBLIC "-//W3C//DTD SVG 1.1//EN" "http://www.w3.org/Graphics/SVG/1.1/DTD/svg11.dtd"><svg xmlns="http://www.w3.org/2000/svg" xmlns:xlink="http://www.w3.org/1999/xlink"><defs><linearGradient id="paint0_linear" x1="1189" y1="476.428" x2="919.204" y2="39.327" gradientUnits="userSpaceOnUse"><stop stop-color="#D3DFE3"/><stop offset="1" stop-color="#B3CED6"/></linearGradient><linearGradient id="paint1_linear" x1="864.916" y1="379.443" x2="610.452" y2="908.935" gradientUnits="userSpaceOnUse"><stop stop-color="#F4FFFE"/><stop offset="1" stop-color="#C7E0DE"/></linearGradient></defs><symbol id="about-decoration-2"><path opacity=".487" d="M355.662 1010.83c-80.292-8.64-142.202-54.741-211.966-65.027-69.647-10.454-146.886 14.844-208.484-2.745-61.335-17.655-107.176-78.3-110.35-146.632-3.202-68.603 36.115-144.994 55.191-238.564 19.194-93.738 18.001-204.756 67.858-240.462 49.594-35.641 149.976 4.097 242.291-1.63 92.461-5.624 176.592-56.647 259.754-59.267 83.28-2.788 165.328 42.893 212.719 116.894 47.537 74.103 60.3 176.695 49.379 279.481-11.039 102.954-45.644 205.934-111.931 271.955-66.317 65.75-164.434 94.707-244.461 85.997z" fill="#D5EEEC"/><mask id="a" maskUnits="userSpaceOnUse" x="-358" y="0" width="1253" height="1259"><path d="M355.662 1010.83c-80.292-8.64-142.202-54.741-211.966-65.027-69.647-10.454-146.886 14.844-208.484-2.745-61.335-17.655-107.176-78.3-110.35-146.632-3.202-68.603 36.115-144.994 55.191-238.564 19.194-93.738 18.001-204.756 67.858-240.462 49.594-35.641 149.976 4.097 242.291-1.63 92.461-5.624 176.592-56.647 259.754-59.267 83.28-2.788 165.328 42.893 212.719 116.894 47.537 74.103 60.3 176.695 49.379 279.481-11.039 102.954-45.644 205.934-111.931 271.955-66.317 65.75-164.434 94.707-244.461 85.997z" fill="#fff"/></mask><g mask="url(#a)" stroke="#003B4A"><path opacity=".302" d="M-420.908 666.451s96.657-112.675 200.86-127.212c104.204-14.536 133.206 67.383 232.778 53.492 99.572-13.89 83.306-97.586 182.878-111.477 99.572-13.891 128.574 68.029 213.095 56.238 84.52-11.791 44.759-104.49 187.171-124.357 142.411-19.867 115.019 82.2 220.38 67.502"/><path opacity=".302" d="M-447.831 594.358s96.657-112.675 200.86-127.212c104.204-14.536 133.206 67.383 232.778 53.492 99.572-13.89 83.306-97.586 182.878-111.477 99.573-13.891 128.574 68.029 213.095 56.238 84.52-11.791 44.76-104.49 187.171-124.357 142.411-19.867 115.019 82.2 220.38 67.502"/><path opacity=".302" d="M-474.754 510.796s96.658-112.675 200.861-127.212c104.204-14.536 133.205 67.383 232.777 53.492 99.573-13.89 83.307-97.586 182.879-111.477 99.572-13.891 128.574 68.029 213.095 56.238 84.52-11.791 44.759-104.49 187.171-124.357 142.411-19.867 115.019 82.2 220.38 67.502M-358.908 891.451s96.657-112.675 200.86-127.212c104.204-14.536 133.206 67.383 232.778 53.492 99.572-13.89 83.306-97.586 182.878-111.477 99.572-13.891 128.574 68.029 213.095 56.238 84.52-11.791 44.759-104.49 187.171-124.357 142.411-19.867 115.019 82.2 220.38 67.502"/><path opacity=".302" d="M-385.831 819.358s96.657-112.675 200.86-127.212c104.204-14.536 133.206 67.383 232.778 53.492 99.572-13.89 83.306-97.586 182.878-111.477 99.573-13.891 128.574 68.029 213.095 56.238 84.52-11.791 44.76-104.49 187.171-124.357 142.411-19.867 115.019 82.2 220.38 67.502"/><path opacity=".302" d="M-412.754 735.796s96.658-112.675 200.861-127.212c104.204-14.536 133.205 67.383 232.778 53.492 99.572-13.89 83.306-97.586 182.878-111.477 99.572-13.891 128.574 68.029 213.095 56.238 84.52-11.791 44.759-104.49 187.171-124.357 142.411-19.867 115.019 82.2 220.38 67.502M-297.908 1144.45s96.657-112.67 200.86-127.21c104.204-14.54 133.206 67.38 232.778 53.49 99.572-13.89 83.306-97.585 182.878-111.476 99.572-13.891 128.574 68.026 213.095 56.236 84.52-11.79 44.759-104.488 187.171-124.355 142.411-19.867 115.019 82.2 220.38 67.502"/><path opacity=".302" d="M-324.831 1072.36s96.657-112.677 200.86-127.213c104.204-14.537 133.206 67.383 232.778 53.491 99.572-13.89 83.306-97.586 182.878-111.477 99.573-13.891 128.574 68.029 213.095 56.238 84.52-11.791 44.76-104.49 187.171-124.357 142.411-19.867 115.019 82.2 220.38 67.502"/><path opacity=".302" d="M-351.754 988.796s96.658-112.675 200.861-127.212c104.203-14.536 133.205 67.383 232.778 53.492 99.572-13.89 83.306-97.586 182.878-111.477 99.572-13.891 128.574 68.029 213.095 56.238 84.52-11.791 44.759-104.49 187.171-124.357 142.411-19.867 115.019 82.2 220.38 67.502"/></g></symbol><symbol id="about-line"><path d="M-808 91.26S-526.306-2.622-268.201 1.145C-10.097 4.912 25.095 90.353 271.728 93.953c246.633 3.6 242.988-81.381 489.621-77.782 246.631 3.6 281.821 89.041 491.171 92.096 209.36 3.055 152.75-94.83 505.49-89.682C2110.76 23.733 2001.03 119.19 2262 123" stroke="#00A98F" stroke-width="2"/></symbol><symbol id="arrow"><path fill-rule="evenodd" clip-rule="evenodd" d="M.78 6.268h14.56L11.866 9.69a.759.759 0 0 0 0 1.085c.304.3.797.3 1.101 0l4.805-4.732a.759.759 0 0 0 0-1.085L12.967.225a.782.782 0 0 0-.55-.225c-.2 0-.4.075-.551.225a.759.759 0 0 0 0 1.085l3.474 3.423H.78c-.431 0-.78.343-.78.767s.349.768.78.768z" fill="#fff"/></symbol><symbol id="chat-icon"><path d="M48.2 14.333C48.2 6.417 41.786 0 33.875 0c-7.553 0-13.742 5.85-14.286 13.27 8.641.873 15.721 7.102 17.806 15.396H48.2l-3.612-4.819a14.282 14.282 0 0 0 3.612-9.514z" fill="#F8C025"/><path fill-rule="evenodd" clip-rule="evenodd" d="M19.078 16.233C8.773 15.325 0 23.427 0 33.683c0 4.462 1.668 8.534 4.414 11.627L0 51.2h17.508c9.67 0 17.509-7.843 17.509-17.517 0-9.107-6.966-16.652-15.94-17.45zM7.958 28.906h9.55v3.186h-9.55v-3.186zm0 9.56h19.1v-3.187h-19.1v3.187z" fill="#F8C025"/></symbol><symbol id="contact-background"><rect x="-67" y="1" width="1539" height="440" rx="20" fill="#003B4A"/><mask id="a" maskUnits="userSpaceOnUse" x="-67" y="1" width="1539" height="440"><rect x="-67" y="1" width="1539" height="440" rx="20" fill="#fff"/></mask><g opacity=".357" stroke="#fff" mask="url(#a)"><path opacity=".302" d="M-43.138 469.56s117.94-137.536 245.087-155.28c127.147-17.744 162.535 82.25 284.031 65.295C607.476 362.619 587.629 260.456 709.125 243.5c121.497-16.955 156.884 83.039 260.015 68.647 103.13-14.393 54.61-127.546 228.38-151.796 173.77-24.25 140.35 100.338 268.91 82.396"/><path opacity=".302" d="M-12.815 544.56s117.94-137.536 245.087-155.28c127.147-17.744 162.535 82.25 284.031 65.295C637.799 437.619 617.952 335.456 739.449 318.5c121.496-16.955 156.883 83.039 260.014 68.647 103.127-14.393 54.617-127.546 228.387-151.796 173.76-24.25 140.34 100.338 268.9 82.396M-75.989 381.56s117.94-137.536 245.087-155.28c127.147-17.744 162.535 82.25 284.031 65.295C574.626 274.619 554.778 172.456 676.275 155.5c121.496-16.955 156.884 83.039 260.014 68.647 103.131-14.393 54.615-127.546 228.381-151.796 173.77-24.25 140.35 100.338 268.91 82.396"/><path opacity=".302" d="M-108.839 279.56S9.101 142.024 136.248 124.28c127.147-17.744 162.534 82.25 284.031 65.295C541.775 172.619 521.928 70.456 643.424 53.5c121.496-16.955 156.884 83.039 260.015 68.647C1006.57 107.754 958.053-5.399 1131.82-29.649c173.77-24.25 140.35 100.338 268.91 82.396"/></g></symbol><symbol id="flex-icon"><path d="M7.945 6.263V.073h-2.76v6.19H0v10.79h5.185V42.8h2.76V17.053h5.185V6.263H7.945zM24.935 19.13V.073h-2.76V19.13H16.99v10.79h5.185V42.8h2.76V29.92h5.184V19.13h-5.184zM41.924 6.263V.073h-2.76v6.19H33.98v10.79h5.184V42.8h2.76V17.053h5.185V6.263h-5.185z" fill="#F8C025"/></symbol><symbol id="footer-logo"><path fill-rule="evenodd" clip-rule="evenodd" d="M54.22 15.33c0-1.543-.501-2.839-1.503-3.904-.984-1.065-2.193-1.606-3.586-1.606-1.462 0-2.584.501-3.379 1.526V5.94h-2.694v14.598h2.694v-1.232c.794 1.025 1.917 1.525 3.38 1.525 1.392 0 2.607-.518 3.585-1.583 1.002-1.059 1.503-2.377 1.503-3.92zm-3.529 2.13c-.541.54-1.232.81-2.067.81-.834 0-1.52-.27-2.066-.81-.541-.565-.812-1.273-.812-2.13 0-.858.27-1.566.812-2.108.541-.564 1.232-.834 2.066-.834.835 0 1.526.27 2.067.834.564.542.835 1.25.835 2.107 0 .858-.27 1.566-.835 2.13zM57.45 5.543c-.899 0-1.647.772-1.647 1.67 0 .898.754 1.646 1.646 1.646.921 0 1.67-.748 1.67-1.646a1.69 1.69 0 0 0-1.67-1.67zm-1.33 4.57v10.431h2.693v-10.43H56.12zM71.892 10.114h-2.62v1.29c-.794-1.06-1.899-1.584-3.338-1.584-1.462 0-2.694.524-3.696 1.566-1.001 1.042-1.502 2.297-1.502 3.776 0 1.486.5 2.758 1.48 3.8 1 1.018 2.233 1.542 3.712 1.542 1.44 0 2.544-.518 3.339-1.583v1.129c0 1.652-1.042 2.567-2.734 2.567-1.296 0-2.21-.484-2.735-1.462l-2.297 1.312c.916 1.67 2.694 2.545 4.945 2.545 1.503 0 2.775-.415 3.84-1.273 1.065-.857 1.606-2.09 1.606-3.695v-9.93zm-5.55 2.21c.853 0 1.543.271 2.084.812.564.524.835 1.215.835 2.026 0 1.67-1.226 2.861-2.918 2.861-1.687 0-2.919-1.191-2.919-2.86 0-.818.27-1.503.812-2.027.564-.541 1.255-.811 2.107-.811z" fill="#003B4A"/><path d="M91.297 10.114h2.86l-3.32 10.43h-2.568l-1.917-6.32-1.917 6.32h-2.567l-3.316-10.43h2.861l1.767 6.407 1.9-6.407h2.544l1.9 6.424 1.773-6.424z" fill="#003B4A"/><path fill-rule="evenodd" clip-rule="evenodd" d="M105.82 10.114h-2.694v1.238c-.817-1.025-1.94-1.526-3.402-1.526-1.393 0-2.584.541-3.586 1.606-.979 1.065-1.48 2.36-1.48 3.903 0 1.543.501 2.855 1.48 3.92 1.002 1.06 2.188 1.583 3.586 1.583 1.462 0 2.591-.5 3.402-1.525v1.232h2.694V10.114zm-3.528 7.345c-.541.541-1.232.812-2.067.812-.834 0-1.52-.27-2.066-.812-.541-.564-.812-1.272-.812-2.13 0-.857.27-1.566.812-2.107.54-.564 1.231-.834 2.066-.834.835 0 1.526.27 2.067.834.564.542.834 1.25.834 2.107 0 .858-.27 1.566-.834 2.13z" fill="#003B4A"/><path d="M115.122 10.114h2.965l-3.966 10.43h-3.068l-3.967-10.43h2.965l2.527 7.305 2.544-7.305z" fill="#003B4A"/><path fill-rule="evenodd" clip-rule="evenodd" d="M124.183 18.398c-1.606 0-2.584-.651-2.941-1.963h7.869c.063-.398.103-.749.103-1.106 0-1.56-.501-2.855-1.502-3.92-.979-1.059-2.251-1.583-3.776-1.583-1.606 0-2.942.518-3.967 1.583-1.018 1.042-1.542 2.354-1.542 3.92 0 1.583.524 2.901 1.565 3.943 1.042 1.042 2.418 1.566 4.151 1.566 2.003 0 3.523-.754 4.547-2.233l-2.17-1.25c-.524.686-1.312 1.043-2.337 1.043zm-.247-6.154c1.226 0 2.273.69 2.584 2.107h-5.319c.317-1.336 1.296-2.107 2.735-2.107z" fill="#003B4A"/><path d="M137.325 19.25c-1.042-1.066-1.566-2.36-1.566-3.92 0-1.566.524-2.862 1.566-3.92 1.065-1.066 2.377-1.584 3.943-1.584 2.026 0 3.817 1.042 4.674 2.694l-2.314 1.359c-.414-.858-1.312-1.4-2.377-1.4-1.606 0-2.798 1.192-2.798 2.862 0 .812.271 1.502.795 2.043.523.524 1.191.795 2.003.795 1.082 0 1.98-.524 2.4-1.376l2.337 1.335c-.915 1.647-2.694 2.712-4.714 2.712-1.566-.012-2.884-.536-3.949-1.6z" fill="#003B4A"/><path fill-rule="evenodd" clip-rule="evenodd" d="M148.285 19.255c1.059 1.06 2.378 1.583 3.92 1.583 1.543 0 2.855-.524 3.92-1.583s1.606-2.377 1.606-3.92c0-1.543-.541-2.838-1.606-3.903-1.059-1.065-2.377-1.606-3.92-1.606-1.542 0-2.855.541-3.92 1.606-1.059 1.065-1.583 2.36-1.583 3.903 0 1.543.524 2.861 1.583 3.92zm5.947-1.86c-.547.542-1.215.813-2.027.813-.817 0-1.485-.271-2.026-.812-.524-.541-.794-1.232-.794-2.067 0-.834.27-1.525.794-2.066.547-.541 1.215-.812 2.026-.812.818 0 1.485.27 2.027.812.541.54.811 1.232.811 2.066 0 .835-.265 1.526-.811 2.067z" fill="#003B4A"/><path d="M175.116 14.12v6.425h-2.694v-6.24c0-1.25-.645-1.98-1.75-1.98-1.232 0-1.94.834-1.94 2.36v5.865h-2.694v-6.245c0-1.25-.645-1.98-1.75-1.98-1.192 0-1.963.834-1.963 2.36v5.865h-2.694V10.114h2.694v1.105c.627-.938 1.583-1.399 2.901-1.399 1.272 0 2.234.501 2.838 1.503.691-1.002 1.733-1.503 3.108-1.503 2.395 0 3.944 1.693 3.944 4.3z" fill="#003B4A"/><path fill-rule="evenodd" clip-rule="evenodd" d="M188.574 15.33c0-1.543-.501-2.839-1.502-3.903-.985-1.066-2.193-1.607-3.586-1.607-1.463 0-2.585.501-3.379 1.526v-1.232h-2.694v14.598h2.694v-5.405c.794 1.025 1.916 1.525 3.379 1.525 1.393 0 2.607-.518 3.586-1.583 1.001-1.059 1.502-2.377 1.502-3.92zm-3.528 2.13c-.542.54-1.232.81-2.067.81-.835 0-1.52-.27-2.067-.81-.541-.565-.811-1.273-.811-2.13 0-.858.27-1.566.811-2.107.542-.565 1.232-.835 2.067-.835.835 0 1.525.27 2.067.835.564.54.834 1.249.834 2.106 0 .858-.27 1.566-.834 2.13zM201.094 10.114H198.4v1.238c-.817-1.025-1.94-1.526-3.402-1.526-1.393 0-2.584.541-3.586 1.606-.979 1.065-1.479 2.36-1.479 3.903 0 1.543.5 2.855 1.479 3.92 1.002 1.06 2.187 1.583 3.586 1.583 1.462 0 2.591-.5 3.402-1.525v1.232h2.694V10.114zm-3.528 7.345c-.541.541-1.232.812-2.067.812-.835 0-1.52-.27-2.066-.812-.542-.564-.812-1.272-.812-2.13 0-.857.27-1.566.812-2.107.541-.564 1.231-.834 2.066-.834.835 0 1.526.27 2.067.834.564.542.834 1.25.834 2.107 0 .858-.27 1.566-.834 2.13z" fill="#003B4A"/><path d="M212.152 10.966c.749.771 1.129 1.813 1.129 3.172v6.407h-2.694v-6.073c0-1.4-.812-2.147-2.067-2.147-1.399 0-2.297.857-2.297 2.584v5.636h-2.694V10.114h2.694v1.169c.645-.979 1.693-1.463 3.109-1.463 1.151 0 2.089.375 2.82 1.146zM222.145 10.114h2.879l-3.8 10.43c-1.082 3.005-2.837 4.318-5.508 4.174v-2.504c1.439.023 2.233-.581 2.734-2.003l-4.277-10.097h2.941l2.712 7.011 2.319-7.011zM35.402 12.273v1.698a8.216 8.216 0 0 0-3.863-3.224c-3.16-1.307-6.625-.621-9.043 1.796L8.272 26.767H6.09c-5.405 0-8.11-6.533-4.288-10.355L14.57 3.643c7.69-7.69 20.832-2.245 20.832 8.629z" fill="#003B4A"/><path d="M34.084 19.67a7.107 7.107 0 0 1-7.104 7.103l-13.959-.006 11.19-11.19c2.015-2.015 4.577-1.969 6.304-1.25 1.727.714 3.569 2.493 3.569 5.343z" fill="#003B4A"/></symbol><symbol id="index-decoration-1"><path opacity=".528" fill-rule="evenodd" clip-rule="evenodd" d="M922.31 562.675c74.378-91.85 60.215-226.605-31.635-300.984-91.85-74.379-226.605-60.216-300.984 31.635-74.379 91.85-60.215 226.605 31.635 300.983 91.85 74.379 226.605 60.216 300.984-31.634z" fill="#EFFCFF"/><path fill-rule="evenodd" clip-rule="evenodd" d="M47 474.26v254h1054v-254H47z" fill="url(#paint0_linear)"/><path fill-rule="evenodd" clip-rule="evenodd" d="M1084.65 512.563L47.651 474.147l1035.619-80.584 1.38 119z" fill="url(#paint1_linear)"/><path clip-rule="evenodd" d="M1231.57 343.099s-7.75-238.481-88.16-262.352c-80.42-23.872-281.348 114.219-425.65 63.569-144.303-50.65-314.634-143.209-384.771 141.67S508.102 706.038 646.013 612.74c137.911-93.299 174.248-98.347 359.707-118.755 185.46-20.409 225.85-150.886 225.85-150.886z" stroke="#fff"/></symbol><symbol id="logo-white"><path fill-rule="evenodd" clip-rule="evenodd" d="M66.121 18.694c0-1.881-.61-3.46-1.832-4.76-1.2-1.298-2.674-1.958-4.373-1.958-1.783 0-3.152.611-4.12 1.86V7.245H52.51v17.802h3.285v-1.502c.969 1.25 2.338 1.86 4.12 1.86 1.7 0 3.18-.631 4.374-1.93 1.222-1.292 1.832-2.9 1.832-4.78zm-4.303 2.598c-.66.66-1.502.99-2.52.99s-1.853-.33-2.52-.99c-.66-.688-.99-1.552-.99-2.598 0-1.046.33-1.91.99-2.569.66-.688 1.502-1.018 2.52-1.018s1.86.33 2.52 1.018c.688.66 1.018 1.523 1.018 2.57 0 1.045-.33 1.909-1.018 2.597zM70.06 6.76c-1.095 0-2.008.941-2.008 2.036a2.03 2.03 0 0 0 2.008 2.008c1.123 0 2.036-.913 2.036-2.008s-.92-2.036-2.036-2.036zm-1.622 5.574v12.72h3.286v-12.72h-3.286zM87.673 12.334H84.48v1.573c-.969-1.292-2.317-1.93-4.072-1.93-1.783 0-3.285.638-4.506 1.909-1.222 1.27-1.833 2.8-1.833 4.605 0 1.81.611 3.362 1.805 4.633 1.221 1.242 2.723 1.881 4.527 1.881 1.755 0 3.103-.631 4.072-1.93v1.376c0 2.014-1.27 3.13-3.334 3.13-1.58 0-2.696-.589-3.335-1.782l-2.801 1.6c1.116 2.036 3.285 3.103 6.03 3.103 1.832 0 3.384-.505 4.683-1.551 1.298-1.046 1.958-2.549 1.958-4.507v-12.11zm-6.767 2.696c1.039 0 1.881.33 2.541.99.688.639 1.018 1.48 1.018 2.47 0 2.037-1.495 3.49-3.56 3.49-2.056 0-3.558-1.453-3.558-3.49 0-.996.33-1.831.99-2.47.688-.66 1.53-.99 2.569-.99z" fill="#fff"/><path d="M111.337 12.334h3.489l-4.05 12.72h-3.131l-2.338-7.707-2.338 7.707h-3.13l-4.044-12.72h3.489l2.155 7.814 2.317-7.814h3.102l2.317 7.835 2.162-7.835z" fill="#fff"/><path fill-rule="evenodd" clip-rule="evenodd" d="M129.049 12.334h-3.286v1.51c-.996-1.25-2.365-1.86-4.148-1.86-1.699 0-3.152.659-4.374 1.958-1.193 1.298-1.804 2.878-1.804 4.76 0 1.88.611 3.481 1.804 4.78 1.222 1.292 2.668 1.93 4.374 1.93 1.783 0 3.159-.61 4.148-1.86v1.502h3.286v-12.72zm-4.303 8.958c-.66.66-1.503.99-2.521.99s-1.853-.33-2.52-.99c-.66-.688-.99-1.552-.99-2.598 0-1.046.33-1.91.99-2.569.66-.688 1.502-1.018 2.52-1.018s1.861.33 2.521 1.018c.687.66 1.017 1.523 1.017 2.57 0 1.045-.33 1.909-1.017 2.597z" fill="#fff"/><path d="M140.393 12.334h3.615l-4.836 12.72h-3.742l-4.837-12.72h3.616l3.081 8.909 3.103-8.909z" fill="#fff"/><path fill-rule="evenodd" clip-rule="evenodd" d="M151.443 22.436c-1.959 0-3.152-.793-3.587-2.394h9.596c.077-.484.126-.913.126-1.348 0-1.902-.61-3.482-1.832-4.78-1.193-1.292-2.745-1.93-4.605-1.93-1.959 0-3.587.631-4.837 1.93-1.242 1.27-1.881 2.87-1.881 4.78 0 1.93.639 3.538 1.909 4.809 1.271 1.27 2.949 1.91 5.062 1.91 2.443 0 4.296-.92 5.546-2.724l-2.647-1.524c-.639.836-1.601 1.27-2.85 1.27zm-.302-7.504c1.495 0 2.773.842 3.152 2.569h-6.487c.387-1.629 1.58-2.57 3.335-2.57z" fill="#fff"/><path d="M167.469 23.475c-1.27-1.299-1.909-2.878-1.909-4.78 0-1.91.639-3.49 1.909-4.781 1.299-1.299 2.9-1.93 4.809-1.93 2.471 0 4.654 1.27 5.7 3.284l-2.822 1.657c-.505-1.046-1.6-1.706-2.899-1.706-1.958 0-3.412 1.454-3.412 3.49 0 .99.33 1.832.969 2.491.639.64 1.453.97 2.443.97 1.32 0 2.415-.64 2.927-1.679l2.851 1.629c-1.117 2.008-3.286 3.306-5.75 3.306-1.909-.014-3.517-.652-4.816-1.951z" fill="#fff"/><path fill-rule="evenodd" clip-rule="evenodd" d="M180.835 23.482c1.292 1.292 2.9 1.93 4.781 1.93 1.881 0 3.482-.638 4.781-1.93 1.298-1.292 1.958-2.9 1.958-4.78 0-1.882-.66-3.462-1.958-4.76-1.292-1.299-2.9-1.959-4.781-1.959-1.881 0-3.482.66-4.781 1.959-1.291 1.298-1.93 2.878-1.93 4.76 0 1.88.639 3.488 1.93 4.78zm7.252-2.267c-.667.66-1.481.99-2.471.99-.997 0-1.811-.33-2.471-.99-.639-.66-.969-1.503-.969-2.52 0-1.019.33-1.861.969-2.52.667-.66 1.481-.99 2.471-.99.997 0 1.811.33 2.471.99.66.659.99 1.501.99 2.52 0 1.017-.323 1.86-.99 2.52z" fill="#fff"/><path d="M213.556 17.22v7.835h-3.286v-7.61c0-1.524-.786-2.415-2.134-2.415-1.502 0-2.366 1.018-2.366 2.878v7.153h-3.285v-7.616c0-1.524-.786-2.415-2.134-2.415-1.453 0-2.394 1.018-2.394 2.878v7.153h-3.285V12.334h3.285v1.348c.765-1.144 1.931-1.706 3.538-1.706 1.552 0 2.724.61 3.461 1.832.843-1.221 2.113-1.832 3.791-1.832 2.92 0 4.809 2.064 4.809 5.244z" fill="#fff"/><path fill-rule="evenodd" clip-rule="evenodd" d="M229.968 18.694c0-1.881-.611-3.46-1.832-4.76-1.2-1.298-2.675-1.958-4.373-1.958-1.784 0-3.152.61-4.121 1.86v-1.502h-3.286v17.803h3.286v-6.592c.969 1.25 2.337 1.86 4.121 1.86 1.698 0 3.18-.631 4.373-1.93 1.221-1.292 1.832-2.9 1.832-4.78zm-4.303 2.598c-.66.66-1.502.99-2.52.99s-1.853-.33-2.52-.99c-.66-.688-.99-1.552-.99-2.598 0-1.046.33-1.91.99-2.569.659-.688 1.502-1.018 2.52-1.018s1.86.33 2.52 1.018c.688.66 1.018 1.523 1.018 2.57 0 1.045-.33 1.909-1.018 2.597zM245.237 12.334h-3.286v1.51c-.996-1.25-2.365-1.86-4.148-1.86-1.699 0-3.152.659-4.374 1.958-1.193 1.298-1.804 2.878-1.804 4.76 0 1.88.611 3.481 1.804 4.78 1.222 1.292 2.668 1.93 4.374 1.93 1.783 0 3.159-.61 4.148-1.86v1.502h3.286v-12.72zm-4.303 8.958c-.66.66-1.503.99-2.521.99s-1.853-.33-2.52-.99c-.66-.688-.99-1.552-.99-2.598 0-1.046.33-1.91.99-2.569.66-.688 1.502-1.018 2.52-1.018s1.861.33 2.521 1.018c.687.66 1.017 1.523 1.017 2.57 0 1.045-.33 1.909-1.017 2.597z" fill="#fff"/><path d="M258.723 13.373c.912.94 1.375 2.212 1.375 3.868v7.814h-3.285v-7.407c0-1.705-.99-2.618-2.52-2.618-1.706 0-2.801 1.046-2.801 3.152v6.873h-3.285v-12.72h3.285v1.424c.786-1.193 2.064-1.783 3.791-1.783 1.404 0 2.548.456 3.44 1.397zM270.909 12.334h3.51l-4.633 12.72c-1.32 3.665-3.461 5.266-6.718 5.09V27.09c1.755.028 2.724-.709 3.334-2.443l-5.215-12.313h3.587l3.306 8.55 2.829-8.55zM43.173 14.967v2.07c-1.081-1.72-2.696-3.102-4.71-3.93-3.855-1.594-8.08-.759-11.029 2.19L10.088 32.643h-2.66c-6.593 0-9.892-7.968-5.23-12.629l15.57-15.57c9.378-9.38 25.405-2.738 25.405 10.523z" fill="#fff"/><path d="M41.566 23.987c0 4.781-3.883 8.663-8.663 8.663l-17.024-.007 13.647-13.647c2.457-2.457 5.581-2.4 7.687-1.523 2.106.87 4.353 3.04 4.353 6.514z" fill="#fff"/></symbol><symbol id="logo"><path fill-rule="evenodd" clip-rule="evenodd" d="M66.121 18.694c0-1.881-.61-3.46-1.832-4.76-1.2-1.298-2.674-1.958-4.373-1.958-1.783 0-3.152.611-4.12 1.86V7.245H52.51v17.802h3.285v-1.502c.969 1.25 2.338 1.86 4.12 1.86 1.7 0 3.18-.631 4.374-1.93 1.222-1.292 1.832-2.9 1.832-4.78zm-4.303 2.598c-.66.66-1.502.99-2.52.99s-1.853-.33-2.52-.99c-.66-.688-.99-1.552-.99-2.598 0-1.046.33-1.91.99-2.569.66-.688 1.502-1.018 2.52-1.018s1.86.33 2.52 1.018c.688.66 1.018 1.523 1.018 2.57 0 1.045-.33 1.909-1.018 2.597zM70.06 6.76c-1.095 0-2.008.941-2.008 2.036a2.03 2.03 0 0 0 2.008 2.008c1.123 0 2.036-.913 2.036-2.008s-.92-2.036-2.036-2.036zm-1.622 5.574v12.72h3.286v-12.72h-3.286zM87.673 12.334H84.48v1.573c-.969-1.292-2.317-1.93-4.072-1.93-1.783 0-3.285.638-4.506 1.909-1.222 1.27-1.833 2.8-1.833 4.605 0 1.81.611 3.362 1.805 4.633 1.221 1.242 2.723 1.881 4.527 1.881 1.755 0 3.103-.631 4.072-1.93v1.376c0 2.014-1.27 3.13-3.334 3.13-1.58 0-2.696-.589-3.335-1.782l-2.801 1.6c1.116 2.036 3.285 3.103 6.03 3.103 1.832 0 3.384-.505 4.683-1.551 1.298-1.046 1.958-2.549 1.958-4.507v-12.11zm-6.767 2.696c1.039 0 1.881.33 2.541.99.688.639 1.018 1.48 1.018 2.47 0 2.037-1.495 3.49-3.56 3.49-2.056 0-3.558-1.453-3.558-3.49 0-.996.33-1.831.99-2.47.688-.66 1.53-.99 2.569-.99z" fill="#003B4A"/><path d="M111.337 12.334h3.489l-4.05 12.72h-3.131l-2.338-7.707-2.338 7.707h-3.13l-4.044-12.72h3.489l2.155 7.814 2.317-7.814h3.102l2.317 7.835 2.162-7.835z" fill="#003B4A"/><path fill-rule="evenodd" clip-rule="evenodd" d="M129.049 12.334h-3.286v1.51c-.996-1.25-2.365-1.86-4.148-1.86-1.699 0-3.152.659-4.374 1.958-1.193 1.298-1.804 2.878-1.804 4.76 0 1.88.611 3.481 1.804 4.78 1.222 1.292 2.668 1.93 4.374 1.93 1.783 0 3.159-.61 4.148-1.86v1.502h3.286v-12.72zm-4.303 8.958c-.66.66-1.503.99-2.521.99s-1.853-.33-2.52-.99c-.66-.688-.99-1.552-.99-2.598 0-1.046.33-1.91.99-2.569.66-.688 1.502-1.018 2.52-1.018s1.861.33 2.521 1.018c.687.66 1.017 1.523 1.017 2.57 0 1.045-.33 1.909-1.017 2.597z" fill="#003B4A"/><path d="M140.393 12.334h3.615l-4.836 12.72h-3.742l-4.837-12.72h3.616l3.081 8.909 3.103-8.909z" fill="#003B4A"/><path fill-rule="evenodd" clip-rule="evenodd" d="M151.443 22.436c-1.959 0-3.152-.793-3.587-2.394h9.596c.077-.484.126-.913.126-1.348 0-1.902-.61-3.482-1.832-4.78-1.193-1.292-2.745-1.93-4.605-1.93-1.959 0-3.587.631-4.837 1.93-1.242 1.27-1.881 2.87-1.881 4.78 0 1.93.639 3.538 1.909 4.809 1.271 1.27 2.949 1.91 5.062 1.91 2.443 0 4.296-.92 5.546-2.724l-2.647-1.524c-.639.836-1.601 1.27-2.85 1.27zm-.302-7.504c1.495 0 2.773.842 3.152 2.569h-6.487c.387-1.629 1.58-2.57 3.335-2.57z" fill="#003B4A"/><path d="M167.469 23.475c-1.27-1.299-1.909-2.878-1.909-4.78 0-1.91.639-3.49 1.909-4.781 1.299-1.299 2.9-1.93 4.809-1.93 2.471 0 4.654 1.27 5.7 3.284l-2.822 1.657c-.505-1.046-1.6-1.706-2.899-1.706-1.958 0-3.412 1.454-3.412 3.49 0 .99.33 1.832.969 2.491.639.64 1.453.97 2.443.97 1.32 0 2.415-.64 2.927-1.679l2.851 1.629c-1.117 2.008-3.286 3.306-5.75 3.306-1.909-.014-3.517-.652-4.816-1.951z" fill="#003B4A"/><path fill-rule="evenodd" clip-rule="evenodd" d="M180.835 23.482c1.292 1.292 2.9 1.93 4.781 1.93 1.881 0 3.482-.638 4.781-1.93 1.298-1.292 1.958-2.9 1.958-4.78 0-1.882-.66-3.462-1.958-4.76-1.292-1.299-2.9-1.959-4.781-1.959-1.881 0-3.482.66-4.781 1.959-1.291 1.298-1.93 2.878-1.93 4.76 0 1.88.639 3.488 1.93 4.78zm7.252-2.267c-.667.66-1.481.99-2.471.99-.997 0-1.811-.33-2.471-.99-.639-.66-.969-1.503-.969-2.52 0-1.019.33-1.861.969-2.52.667-.66 1.481-.99 2.471-.99.997 0 1.811.33 2.471.99.66.659.99 1.501.99 2.52 0 1.017-.323 1.86-.99 2.52z" fill="#003B4A"/><path d="M213.556 17.22v7.835h-3.286v-7.61c0-1.524-.786-2.415-2.134-2.415-1.502 0-2.366 1.018-2.366 2.878v7.153h-3.285v-7.616c0-1.524-.786-2.415-2.134-2.415-1.453 0-2.394 1.018-2.394 2.878v7.153h-3.285V12.334h3.285v1.348c.765-1.144 1.931-1.706 3.538-1.706 1.552 0 2.724.61 3.461 1.832.843-1.221 2.113-1.832 3.791-1.832 2.92 0 4.809 2.064 4.809 5.244z" fill="#003B4A"/><path fill-rule="evenodd" clip-rule="evenodd" d="M229.968 18.694c0-1.881-.611-3.46-1.832-4.76-1.2-1.298-2.675-1.958-4.373-1.958-1.784 0-3.152.61-4.121 1.86v-1.502h-3.286v17.803h3.286v-6.592c.969 1.25 2.337 1.86 4.121 1.86 1.698 0 3.18-.631 4.373-1.93 1.221-1.292 1.832-2.9 1.832-4.78zm-4.303 2.598c-.66.66-1.502.99-2.52.99s-1.853-.33-2.52-.99c-.66-.688-.99-1.552-.99-2.598 0-1.046.33-1.91.99-2.569.659-.688 1.502-1.018 2.52-1.018s1.86.33 2.52 1.018c.688.66 1.018 1.523 1.018 2.57 0 1.045-.33 1.909-1.018 2.597zM245.237 12.334h-3.286v1.51c-.996-1.25-2.365-1.86-4.148-1.86-1.699 0-3.152.659-4.374 1.958-1.193 1.298-1.804 2.878-1.804 4.76 0 1.88.611 3.481 1.804 4.78 1.222 1.292 2.668 1.93 4.374 1.93 1.783 0 3.159-.61 4.148-1.86v1.502h3.286v-12.72zm-4.303 8.958c-.66.66-1.503.99-2.521.99s-1.853-.33-2.52-.99c-.66-.688-.99-1.552-.99-2.598 0-1.046.33-1.91.99-2.569.66-.688 1.502-1.018 2.52-1.018s1.861.33 2.521 1.018c.687.66 1.017 1.523 1.017 2.57 0 1.045-.33 1.909-1.017 2.597z" fill="#003B4A"/><path d="M258.723 13.373c.912.94 1.375 2.212 1.375 3.868v7.814h-3.285v-7.407c0-1.705-.99-2.618-2.52-2.618-1.706 0-2.801 1.046-2.801 3.152v6.873h-3.285v-12.72h3.285v1.424c.786-1.193 2.064-1.783 3.791-1.783 1.404 0 2.548.456 3.44 1.397zM270.909 12.334h3.51l-4.633 12.72c-1.32 3.665-3.461 5.266-6.718 5.09V27.09c1.755.028 2.724-.709 3.334-2.443l-5.215-12.313h3.587l3.306 8.55 2.829-8.55zM43.173 14.967v2.07c-1.081-1.72-2.696-3.102-4.71-3.93-3.855-1.594-8.08-.759-11.029 2.19L10.088 32.643h-2.66c-6.593 0-9.892-7.968-5.23-12.629l15.57-15.57c9.378-9.38 25.405-2.738 25.405 10.523z" fill="#003B4A"/><path d="M41.566 23.987c0 4.781-3.883 8.663-8.663 8.663l-17.024-.007 13.647-13.647c2.457-2.457 5.581-2.4 7.687-1.523 2.106.87 4.353 3.04 4.353 6.514z" fill="#00A98F"/></symbol><symbol id="mail-icon"><path d="M19.584.011H.726l9.429 7.767L19.69.033a.657.657 0 0 0-.107-.022z" fill="#D5EEEC"/><path d="M10.612 9.278a.725.725 0 0 1-.919 0L0 1.292v12.5c0 .401.325.726.725.726h18.859c.4 0 .725-.325.725-.725V1.4l-9.697 7.878z" fill="#D5EEEC"/></symbol><symbol id="mark"><path fill-rule="evenodd" clip-rule="evenodd" d="M7.1 12.57L3.633 9.101l1.156-1.156L7.1 10.258l5.201-5.201 1.156 1.155L7.1 12.57zM8.545.648a7.875 7.875 0 1 0 0 15.75 7.875 7.875 0 0 0 0-15.75z" fill="#00A98F"/></symbol><symbol id="phone-icon"><path d="M20.014 14.783c-1.332 0-2.64-.208-3.88-.618-.607-.207-1.354-.017-1.725.364l-2.446 1.847c-2.838-1.515-4.586-3.262-6.08-6.079l1.793-2.382a1.759 1.759 0 0 0 .433-1.782 12.373 12.373 0 0 1-.62-3.887C7.488 1.283 6.704.5 5.741.5H1.746C.783.5 0 1.283 0 2.246 0 13.282 8.978 22.26 20.014 22.26c.963 0 1.746-.783 1.746-1.746v-3.985c0-.963-.783-1.746-1.746-1.746z" fill="#D5EEEC"/></symbol><symbol id="product-1-decoration"><path opacity=".33" d="M777.041 182.613c57.436 40.264 74.006 99.164 121.961 136.11 47.743 37.016 126.618 52.012 162.978 90.642 36.11 38.563 29.75 100.895-15.76 150.503-45.68 49.81-130.462 87.031-211.308 144.994-81.057 58.033-158.131 136.943-222.661 140.946-64.274 4.069-115.749-66.703-192.794-101.935-77.088-35.367-179.491-35.129-247.112-68.662-67.833-33.464-100.629-100.632-86.11-173.056 14.475-72.558 76.477-150.44 157.348-218.382 81.083-68.01 180.825-126.013 279.654-144.434 98.662-18.219 196.622 3.075 253.804 43.274z" fill="#D5EEEC"/></symbol><symbol id="product-decoration"><path d="M253.844 476.92c183.404-3.739 347.124 24.294 508.78 25.996 161.537 2.03 310.156-61.488 459.926-44.819 149.25 16.85 300.06 114.035 363.57 235.097 63.79 121.537 40.69 267.1 76.24 438.456 35.43 171.69 129.91 369.33 50 444.87-79.37 75.36-378.86-45.15-576.77-12.93-198.316 32.08-340.779 143.1-521.166 167.6-180.507 24.83-398.412-37.05-563.674-157.67-165.667-120.78-232.316-227.02-293.391-412.87-60.955-186.171-70.201-378.01 20.684-511.515 91.171-133.03 292.923-168.656 475.801-172.215z" fill="#EDFAF9"/></symbol><symbol id="touch-decoration-green"><rect x="-43" width="1539" height="249" rx="20" fill="#00A98F"/><mask id="a" maskUnits="userSpaceOnUse" x="-43" y="0" width="1539" height="249"><rect x="-43" width="1539" height="249" rx="20" fill="#fff"/></mask><g mask="url(#a)" stroke="#fff"><path opacity=".302" d="M33.862 345.56s117.939-137.536 245.087-155.28c127.147-17.744 162.535 82.25 284.031 65.295C684.476 238.619 664.629 136.456 786.125 119.5c121.497-16.955 156.884 83.039 260.015 68.647 103.13-14.393 54.61-127.546 228.38-151.796 173.77-24.25 140.35 100.338 268.91 82.396"/><path opacity=".302" d="M64.185 420.56s117.94-137.536 245.087-155.28c127.147-17.744 162.535 82.25 284.031 65.295C714.799 313.619 694.952 211.456 816.449 194.5c121.496-16.955 156.883 83.039 260.011 68.647 103.13-14.393 54.62-127.546 228.39-151.796 173.76-24.25 140.34 100.338 268.9 82.396M1.011 257.56s117.94-137.536 245.087-155.28c127.147-17.744 162.535 82.25 284.031 65.295C651.626 150.619 631.778 48.456 753.275 31.5c121.496-16.955 156.884 83.039 260.015 68.647 103.13-14.393 54.61-127.546 228.38-151.796 173.77-24.25 140.35 100.338 268.91 82.396"/><path opacity=".302" d="M-31.84 155.56S86.1 18.024 213.249.28c127.147-17.744 162.534 82.25 284.031 65.295C618.775 48.619 598.928-53.544 720.424-70.5 841.92-87.455 877.308 12.54 980.439-1.853S1035.05-129.4 1208.82-153.65c173.77-24.25 140.35 100.338 268.91 82.396"/></g></symbol><symbol id="touch-decoration"><rect x="-50" width="1539" height="249" rx="20" fill="#003B4A"/><mask id="a" maskUnits="userSpaceOnUse" x="-50" y="0" width="1539" height="249"><rect x="-50" width="1539" height="249" rx="20" fill="#fff"/></mask><g mask="url(#a)" stroke="#fff"><path opacity=".302" d="M26.862 345.56s117.939-137.536 245.087-155.28c127.147-17.744 162.535 82.25 284.031 65.295C677.476 238.619 657.629 136.456 779.125 119.5c121.497-16.955 156.884 83.039 260.015 68.647 103.13-14.393 54.61-127.546 228.38-151.796 173.77-24.25 140.35 100.338 268.91 82.396"/><path opacity=".302" d="M57.185 420.56s117.94-137.536 245.087-155.28c127.147-17.744 162.535 82.25 284.031 65.295C707.799 313.619 687.952 211.456 809.449 194.5c121.496-16.955 156.883 83.039 260.011 68.647 103.13-14.393 54.62-127.546 228.39-151.796 173.76-24.25 140.34 100.338 268.9 82.396M-5.989 257.56s117.94-137.536 245.087-155.28c127.147-17.744 162.535 82.25 284.031 65.295C644.626 150.619 624.778 48.455 746.275 31.5c121.496-16.955 156.884 83.039 260.015 68.647 103.13-14.393 54.61-127.546 228.38-151.796 173.77-24.25 140.35 100.338 268.91 82.396"/><path opacity=".302" d="M-38.84 155.56S79.1 18.024 206.249.28c127.147-17.744 162.534 82.25 284.031 65.295C611.775 48.619 591.928-53.545 713.424-70.5 834.92-87.455 870.308 12.54 973.439-1.853S1028.05-129.4 1201.82-153.65c173.77-24.25 140.35 100.338 268.91 82.396"/></g></symbol><symbol id="work-icon-1"><path d="M43.354 41.26a1.5 1.5 0 0 0-1.738-1.218l-1.477.261-3.386-19.196a1.501 1.501 0 0 0-1.738-1.216l-4.948.872 1.15 6.693a1.501 1.501 0 0 1-1.218 1.732l-5.97 1.052a1.5 1.5 0 0 1-1.74-1.223l-1.147-6.68-5.333.94-.52-2.956 11.809-2.08-1.302-7.383a1.5 1.5 0 0 0-1.738-1.216l-3.462.61.464 2.631a1.5 1.5 0 1 1-2.954.522l-.464-2.632-3.912.69-1.514-8.599a1.5 1.5 0 0 0-1.217-1.217L1.784.023a1.5 1.5 0 0 0-.521 2.954l8.18 1.442c2.78 15.867 2.619 14.931 5.939 33.74 5.758-4.603 14.547-.629 14.608 6.98l12.147-2.142a1.501 1.501 0 0 0 1.217-1.738z" fill="#F8C025"/><path d="M24.991 27.024l3.016-.532-.895-5.208-3.016.531.895 5.209z" fill="#F8C025"/><path fill-rule="evenodd" clip-rule="evenodd" d="M15.08 46.243a5.995 5.995 0 0 1 4.867-6.949 6.007 6.007 0 0 1 6.95 4.866c.65 3.686-2.194 7.04-5.911 7.04a6.01 6.01 0 0 1-5.906-4.957zm2.954-.521a3.003 3.003 0 0 0 3.476 2.432 2.997 2.997 0 0 0 2.433-3.473 3.003 3.003 0 0 0-3.476-2.432 2.997 2.997 0 0 0-2.433 3.473z" fill="#F8C025"/></symbol><symbol id="work-icon-2"><path d="M35.63 7.539a1.5 1.5 0 0 0-1.5-1.5h-7.035V1.5a1.5 1.5 0 0 0-3 0V6.04h-7.5a1.5 1.5 0 0 0-1.5 1.5V12.1h20.536V7.539zM33.105 19.6h9v-3a1.5 1.5 0 0 0-1.5-1.5h-7.5v4.5zM33.105 22.6h9v4.501h-9v-4.5zM21.105 15.1h9v4.5h-9v-4.5zM27.622 25.378l2.483 1.245v-4.022h-9v4.022l2.485-1.245a4.502 4.502 0 0 1 4.032 0zM18.106 15.1H10.6a1.5 1.5 0 0 0-1.5 1.5v3h9.005v-4.5zM42.105 30.101h-5.06l5.06 2.536v-2.536zM9.1 22.6h9.006v4.501H9.1v-4.5zM9.1 30.101v2.54l5.066-2.54H9.1zM5.294 42.244a4.492 4.492 0 0 1 3.57 2.323c.645.904 1.994.813 2.536-.111 1.736-2.956 6.027-2.959 7.763.001.58.99 2.029.988 2.608-.003 1.764-3.014 6.16-2.952 7.833.113.645.905 1.994.813 2.537-.111 1.735-2.956 6.026-2.959 7.762.002.58.988 2.03.988 2.609-.004a4.518 4.518 0 0 1 3.402-2.2c.419-1.647.608-2.743.627-2.85a1.5 1.5 0 0 0-.807-1.592L26.278 28.06a1.5 1.5 0 0 0-1.345 0L5.477 37.812a1.5 1.5 0 0 0-.806 1.591c.018.108.207 1.199.623 2.84z" fill="#F8C025"/><path d="M50.167 47.978a4.5 4.5 0 0 1-2.415-1.893c-.506-1.073-2.036-1.168-2.65-.116-1.741 2.975-6.051 2.965-7.787.006a1.5 1.5 0 0 0-2.587 0c-1.708 2.909-5.92 2.981-7.717.11-.506-1.073-2.035-1.167-2.65-.116-1.74 2.975-6.051 2.965-7.786.006a1.5 1.5 0 0 0-2.588 0c-1.707 2.909-5.92 2.982-7.716.11-.508-1.076-2.037-1.165-2.65-.116a4.497 4.497 0 0 1-2.562 2.033 1.5 1.5 0 0 0 .883 2.867 7.483 7.483 0 0 0 2.971-1.743 7.51 7.51 0 0 0 10.367-.003 7.51 7.51 0 0 0 10.37 0 7.51 7.51 0 0 0 10.371 0 7.51 7.51 0 0 0 10.368.003 7.492 7.492 0 0 0 2.844 1.703 1.5 1.5 0 1 0 .934-2.85z" fill="#F8C025"/></symbol><symbol id="work-icon-3"><path d="M21.8 3.05h27.9a1.5 1.5 0 0 0 0-3H21.542c.386 1.089.216 1.83.258 3zM1.5 3.05h5.6c.042-1.17-.128-1.911.258-3H1.5a1.5 1.5 0 0 0 0 3zM36.26 36.15H25.6c2.481 0 4.5 2.019 4.5 4.5s-2.019 4.5-4.5 4.5a4.505 4.505 0 0 1-4.5-4.5c0-2.481 2.019-4.5 4.5-4.5H14.94a10.481 10.481 0 0 1 0 15h21.32a10.481 10.481 0 0 1 0-15z" fill="#F8C025"/><path d="M25.6 42.15a1.5 1.5 0 1 0 0-3 1.5 1.5 0 0 0 0 3zM11.6 9.05h1.5v1.858a4.492 4.492 0 0 0-2.983 4.598l-6.414 3.268a1.5 1.5 0 0 0-.815 1.45l.27 3.55a1.5 1.5 0 1 0 2.99-.227l-.193-2.554 5.385-2.743.078.082a4.502 4.502 0 0 0 6.442-.082l5.385 2.743-.194 2.554a1.5 1.5 0 0 0 2.991.227l.27-3.55a1.5 1.5 0 0 0-.815-1.45l-6.414-3.268a4.492 4.492 0 0 0-2.983-4.598V9.05h1.2a1.5 1.5 0 0 0 1.5-1.5v-6a1.5 1.5 0 0 0-1.5-1.5h-5.7a1.5 1.5 0 0 0-1.5 1.5v6a1.5 1.5 0 0 0 1.5 1.5z" fill="#F8C025"/><path fill-rule="evenodd" clip-rule="evenodd" d="M.1 43.65c0-4.136 3.365-7.5 7.5-7.5 4.136 0 7.5 3.364 7.5 7.5s-3.364 7.5-7.5 7.5c-4.135 0-7.5-3.364-7.5-7.5zm6 0a1.5 1.5 0 1 0 3 0 1.5 1.5 0 0 0-3 0zM36.1 43.65c0-4.136 3.365-7.5 7.5-7.5 4.136 0 7.5 3.364 7.5 7.5s-3.364 7.5-7.5 7.5c-4.135 0-7.5-3.364-7.5-7.5zm6 0a1.5 1.5 0 1 0 3 0 1.5 1.5 0 0 0-3 0z" fill="#F8C025"/><path d="M8.6 24.15a1.5 1.5 0 0 0-1.5 1.5v7.5h15v-7.5a1.5 1.5 0 0 0-1.5-1.5h-4.5v3.5a1.5 1.5 0 0 1-3 0v-3.5H8.6zM30.1 24.15a1.5 1.5 0 0 0-1.5 1.5v7.5h15v-7.5a1.5 1.5 0 0 0-1.5-1.5h-4.5v3.5a1.5 1.5 0 0 1-3 0v-3.5h-4.5z" fill="#F8C025"/></symbol><symbol id="work-icon-4"><path d="M22.545 0h-6.09a4.455 4.455 0 0 0-4.45 4.511l14.99.009A4.455 4.455 0 0 0 22.544 0zM9.005 15.1h2.95v2.95h-2.95V15.1zM9.005 39.175h2.95v2.95h-2.95v-2.95zM9.005 27.125h2.95v2.95h-2.95v-2.95z" fill="#F8C025"/><path fill-rule="evenodd" clip-rule="evenodd" d="M29.384 2.999l6.108-.01a3.498 3.498 0 0 1 3.506 3.5V47.7c0 1.93-1.57 3.5-3.5 3.5H3.503c-1.93 0-3.5-1.57-3.5-3.5V6.489a3.499 3.499 0 0 1 3.506-3.5h-.007.08l6.034.01a7.407 7.407 0 0 0-.61 2.951 1.5 1.5 0 0 0 1.5 1.5h17.99a1.5 1.5 0 0 0 1.5-1.5 7.407 7.407 0 0 0-.612-2.951zM13.455 45.125a1.5 1.5 0 0 0 1.5-1.5v-5.95a1.5 1.5 0 0 0-1.5-1.5h-5.95a1.5 1.5 0 0 0-1.5 1.5v5.95a1.5 1.5 0 0 0 1.5 1.5h5.95zm1.5-13.55a1.5 1.5 0 0 1-1.5 1.5h-5.95a1.5 1.5 0 0 1-1.5-1.5v-5.95a1.5 1.5 0 0 1 1.5-1.5h5.95a1.5 1.5 0 0 1 1.5 1.5v5.95zm-1.5-10.525a1.5 1.5 0 0 0 1.5-1.5V13.6a1.5 1.5 0 0 0-1.5-1.5h-5.95a1.5 1.5 0 0 0-1.5 1.5v5.95a1.5 1.5 0 0 0 1.5 1.5h5.95zM28.5 45.125h-9a1.5 1.5 0 0 1 0-3h9a1.5 1.5 0 0 1 0 3zm-9-5.95h11.995a1.5 1.5 0 0 0 0-3H19.5a1.5 1.5 0 0 0 0 3zm-1.5-7.6a1.5 1.5 0 0 1 1.5-1.5h9a1.5 1.5 0 0 1 0 3h-9a1.5 1.5 0 0 1-1.5-1.5zm1.5-4.45h11.995a1.5 1.5 0 0 0 0-3H19.5a1.5 1.5 0 0 0 0 3zM18 19.55a1.5 1.5 0 0 1 1.5-1.5h9a1.5 1.5 0 0 1 0 3h-9a1.5 1.5 0 0 1-1.5-1.5zm1.5-4.45h11.995a1.5 1.5 0 0 0 0-3H19.5a1.5 1.5 0 0 0 0 3z" fill="#F8C025"/></symbol></svg>